<svg width="412" height="225" viewBox="0 0 412 225" fill="none" xmlns="http://www.w3.org/2000/svg">
<path d="M209.973 79.19L209.984 79.1613L209.994 79.1327C222.845 42.5614 257.358 16.0758 298.175 15.0038C307.415 15.2052 316.391 16.2344 324.859 17.9636C366.324 28.569 397 66.1891 397 110.899C397 142.636 381.553 170.773 357.725 188.274C340.338 199.671 318.681 206.252 294.729 206.252C292.712 206.252 290.756 206.201 288.807 206.098C242.711 200.354 206.743 162.155 204.678 115.232C204.608 113.57 204.555 112.172 204.555 110.899C204.555 99.7304 206.448 89.0945 209.973 79.19Z" stroke="black" stroke-width="30"/>
<path d="M392.532 110.851C392.532 141.272 377.648 168.206 354.815 184.85C338.297 195.759 317.944 201.888 295.788 201.888C293.759 201.888 291.785 201.832 289.812 201.719C245.669 196.434 211.109 159.94 209.136 114.956C209.08 113.606 209.023 112.201 209.023 110.851C209.023 100.224 210.828 90.0459 214.21 80.5429C226.5 45.5676 259.537 20.2639 298.607 19.3643C307.176 19.5329 315.52 20.4889 323.413 22.1195C363.103 32.1286 392.532 68.0598 392.532 110.851Z" fill="url(#paint0_angular_1226_38)"/>
<path d="M336.35 162.5L328.286 164.954C325.006 165.976 321.52 164.136 320.495 160.864L320.29 160.115C319.265 156.843 321.11 153.367 324.391 152.344L332.455 149.89C335.735 148.868 339.22 150.708 340.245 153.98L340.45 154.73C341.544 158.002 339.699 161.478 336.35 162.5Z" fill="#894C29"/>
<path d="M345.876 96.9951L336.606 99.743C332.835 100.888 328.828 98.827 327.649 95.1632L327.414 94.3236C326.235 90.6598 328.356 86.7669 332.128 85.622L341.398 82.8741C345.169 81.7292 349.176 83.7901 350.355 87.4539L350.59 88.2935C351.847 91.9574 349.726 95.8502 345.876 96.9951Z" fill="#894C29"/>
<path d="M332.63 124.977L348.266 120.701C350.677 120.012 356.2 118.288 352.544 109.599C349.355 103.048 345.932 104.22 343.754 104.565L327.573 108.978C325.949 109.421 324.612 110.31 323.676 111.446L325.868 112.808C326.345 112.733 327.415 112.255 328.83 111.624C333.873 109.374 343.292 105.171 345.782 110.287C349.439 118.976 343.915 120.7 341.504 121.39L328.382 124.978C329.713 125.344 331.182 125.369 332.63 124.977Z" fill="#894C29"/>
<path d="M322.517 117.529L323.684 120.77C324.408 122.866 326.209 124.378 328.382 124.978L341.504 121.39C343.915 120.7 349.439 118.976 345.782 110.287C343.292 105.171 333.873 109.374 328.83 111.624C327.415 112.255 326.345 112.733 325.868 112.808L323.676 111.446C322.281 113.139 321.772 115.384 322.517 117.529Z" fill="#894C29"/>
<path d="M345.302 141.984L331.566 145.869C328.217 146.823 324.732 145.119 323.707 142.052L322.681 139.121C321.588 135.849 323.57 132.373 327.124 131.35L341.338 127.329C343.252 127.056 346.259 125.966 349.061 131.896C352.273 139.871 347.42 141.37 345.302 141.984Z" fill="#894C29"/>
<path d="M327.366 122.187L327.366 122.188L327.371 122.188C329.787 122.156 330.831 122.066 331.73 121.857C332.174 121.753 332.582 121.621 333.103 121.452L333.123 121.445C333.653 121.274 334.3 121.064 335.218 120.809L335.219 120.811L335.222 120.807C337.546 118.7 337.884 116.323 337.202 114.404C336.52 112.485 334.818 111.024 333.065 110.75C332.093 110.597 330.553 110.846 328.982 111.294C327.411 111.741 325.808 112.388 324.708 113.034L324.707 113.032L324.704 113.038C324.02 114.46 323.995 116.421 324.485 118.189C324.976 119.957 325.982 121.534 327.366 122.187Z" fill="url(#paint1_linear_1226_38)" stroke="black" stroke-width="0.02"/>
<path d="M328.414 143.959L328.414 143.96L328.418 143.96C330.686 143.764 331.582 143.527 332.336 143.19C332.564 143.088 332.778 142.977 333.013 142.856C333.555 142.576 334.207 142.238 335.387 141.824L335.388 141.827L335.393 141.819C336.897 139.186 336.642 137.195 335.86 135.731C335.198 134.492 334.159 133.632 333.492 133.081C333.372 132.981 333.263 132.891 333.172 132.811L333.173 132.809L333.166 132.809C332.704 132.772 332.123 132.878 331.481 133.077C330.839 133.276 330.135 133.569 329.428 133.909C328.012 134.588 326.579 135.453 325.587 136.122L325.586 136.12L325.584 136.126C325.031 137.481 325.069 139.187 325.579 140.679C326.09 142.172 327.074 143.454 328.414 143.959Z" fill="url(#paint2_linear_1226_38)" stroke="black" stroke-width="0.02"/>
<path d="M323.704 162.446L323.704 162.447L323.709 162.447C325.294 162.412 326.176 162.3 326.964 162.114C327.357 162.021 327.727 161.909 328.149 161.78C328.182 161.77 328.215 161.759 328.249 161.749C328.646 161.627 329.092 161.49 329.648 161.338L329.65 161.345L329.655 161.332C330.622 158.575 330.368 157.179 329.771 156.378C329.472 155.978 329.089 155.727 328.732 155.529C328.643 155.479 328.555 155.433 328.471 155.388L328.47 155.388C328.386 155.344 328.305 155.301 328.23 155.259C328.078 155.174 327.948 155.091 327.851 154.997L327.853 154.995L327.845 154.994C327.525 154.949 327.116 154.996 326.66 155.103C326.203 155.21 325.7 155.378 325.191 155.577C324.173 155.976 323.134 156.5 322.411 156.91L322.41 156.908L322.407 156.914C321.955 157.808 321.826 158.991 322.036 160.049C322.246 161.108 322.796 162.045 323.704 162.446Z" fill="url(#paint3_linear_1226_38)" stroke="black" stroke-width="0.02"/>
<path d="M331.529 97.1694L331.528 97.1704L331.533 97.1711C333.451 97.4113 334.474 97.1771 335.394 96.8225C335.611 96.7386 335.823 96.6481 336.039 96.5557C336.737 96.2572 337.483 95.9382 338.632 95.7552L338.632 95.7559L338.635 95.7539C340.373 94.7119 341.243 92.7998 341.126 91.0791C341.067 90.2186 340.762 89.4057 340.195 88.7735C339.628 88.1413 338.801 87.6903 337.698 87.5527C337.32 87.4323 336.819 87.4226 336.253 87.4888C335.686 87.5551 335.052 87.6978 334.407 87.8828C333.117 88.2529 331.781 88.7931 330.845 89.2332L330.845 89.2313L330.841 89.2372C330.155 90.399 329.813 92.0208 329.898 93.5322C329.984 95.0433 330.498 96.4469 331.529 97.1694Z" fill="url(#paint4_linear_1226_38)" stroke="black" stroke-width="0.02"/>
<path d="M267.028 117.152C268.116 114.956 268.775 114.651 269.8 112.402C270.825 110.085 271.645 107.767 272.192 105.313C272.739 102.859 273.08 100.406 272.944 97.8837C272.875 96.6568 272.67 95.3617 272.397 94.2029C272.124 92.976 271.645 91.8173 271.167 90.6586C271.713 91.8173 272.192 92.976 272.534 94.2029C272.875 95.4299 273.08 96.6568 273.149 97.9518C273.354 100.474 273.08 102.996 272.602 105.518C272.124 107.972 271.303 110.425 270.347 112.743C269.39 115.06 268.296 117.378 266.93 119.559L267.028 117.152Z" fill="black"/>
<g filter="url(#filter0_d_1226_38)">
<path d="M311.647 178.121L262.543 171.089C259.946 170.68 258.579 168.976 258.989 166.385L266.78 117.377C266.78 117.377 277.031 101.973 271.086 90.1807C264.457 81.3197 260.971 88.613 260.971 88.613C260.971 88.613 252.292 108.721 247.577 112.879C242.793 117.036 236.642 133.259 236.096 151.867C235.549 170.475 224.031 177.25 222.186 179.363C224.099 180.862 267.426 212.421 267.426 212.421C267.426 212.421 279.765 200.943 282.567 200.125C285.369 199.376 309.461 187.186 311.647 178.121Z" fill="url(#paint5_linear_1226_38)"/>
<path d="M262.465 171.583L262.472 171.584L311.008 178.534C310.344 180.512 308.616 182.695 306.234 184.912C303.655 187.313 300.378 189.692 297.067 191.821C293.759 193.948 290.43 195.818 287.755 197.202C286.418 197.893 285.246 198.463 284.324 198.881C283.39 199.305 282.742 199.561 282.437 199.642L282.437 199.642L282.426 199.645C282 199.77 281.448 200.075 280.84 200.469C280.219 200.871 279.495 201.396 278.714 201.995C277.152 203.195 275.339 204.714 273.619 206.202C271.897 207.691 270.264 209.154 269.062 210.245C268.461 210.79 267.967 211.242 267.624 211.559C267.535 211.64 267.456 211.712 267.389 211.775L267.234 211.662L265.855 210.658C264.667 209.792 262.967 208.554 260.921 207.063C256.829 204.081 251.354 200.089 245.818 196.051C235.668 188.645 225.334 181.095 222.944 179.31C223.126 179.142 223.35 178.946 223.617 178.717C223.699 178.646 223.784 178.573 223.873 178.497C224.313 178.12 224.83 177.676 225.397 177.162C226.76 175.925 228.414 174.275 230.029 172.099C233.263 167.74 236.319 161.296 236.595 151.882C236.867 142.626 238.533 133.964 240.724 127.106C241.819 123.677 243.043 120.706 244.284 118.34C245.531 115.966 246.777 114.236 247.905 113.256L247.907 113.254C249.151 112.157 250.612 110.058 252.088 107.59C253.574 105.104 255.108 102.188 256.49 99.4093C257.873 96.6293 259.108 93.9804 259.997 92.0269C260.441 91.05 260.799 90.2466 261.046 89.6872C261.17 89.4075 261.266 89.1888 261.331 89.0399L261.405 88.8699L261.424 88.8262L261.425 88.8226L261.428 88.8168C261.434 88.8064 261.442 88.7896 261.454 88.7673C261.478 88.7226 261.514 88.6558 261.564 88.5724C261.663 88.4053 261.813 88.1738 262.012 87.9217C262.414 87.4118 262.994 86.8474 263.737 86.5348C264.459 86.2305 265.373 86.1484 266.505 86.6541C267.65 87.1657 269.04 88.2892 270.659 90.445C273.516 96.1508 272.49 102.769 270.689 108.039C269.79 110.67 268.707 112.939 267.848 114.551C267.418 115.356 267.046 115.996 266.781 116.434C266.649 116.652 266.544 116.82 266.472 116.933C266.436 116.989 266.409 117.032 266.39 117.06L266.37 117.091L266.365 117.098L266.364 117.1L266.364 117.1L266.364 117.1L266.303 117.191L266.286 117.299L258.496 166.307L258.496 166.307C258.274 167.706 258.526 168.926 259.242 169.859C259.955 170.788 261.077 171.364 262.465 171.583Z" stroke="url(#paint6_linear_1226_38)"/>
</g>
<path d="M267.805 103.541C267.19 110.902 266.302 118.263 265.345 125.557C264.867 129.237 264.32 132.85 263.842 136.531L262.202 147.505L260.425 158.411L259.468 163.864C259.4 164.341 259.331 164.681 259.331 165.09C259.331 165.431 259.331 165.84 259.4 166.181C259.536 166.931 259.81 167.612 260.288 168.294C260.767 168.908 261.313 169.453 262.065 169.794C262.748 170.134 263.5 170.271 264.457 170.475L269.924 171.566C273.546 172.316 277.168 173.065 280.79 173.951C277.1 173.679 273.409 173.27 269.719 172.861L264.184 172.179C263.295 172.111 262.202 171.975 261.245 171.498C260.288 171.089 259.4 170.407 258.716 169.521C258.033 168.635 257.486 167.681 257.281 166.658C257.145 166.113 257.076 165.568 257.076 165.022C257.076 164.477 257.145 163.932 257.213 163.455L257.965 157.933L259.605 146.959L261.45 136.054C262.133 132.441 262.68 128.76 263.432 125.148C264.662 117.991 266.097 110.766 267.805 103.541Z" fill="black"/>
<path d="M321.041 180.222L264.456 171.293C261.791 170.884 257.485 172.292 257.895 169.702L279.559 45.1939C279.969 42.5356 282.497 40.7634 285.094 41.1724L341.611 50.1016C344.277 50.5105 346.053 53.0325 345.643 55.6227L326.508 176.132C326.167 178.859 323.638 180.631 321.041 180.222Z" fill="black"/>
<path d="M319.186 175.852L265.184 167.719C262.641 167.347 260.945 165.05 261.336 162.69L280.311 52.8282C280.702 50.4069 283.115 48.7927 285.593 49.1652L338.817 57.332C341.361 57.7046 343.056 60.0017 342.665 62.3609L324.404 172.127C324.078 174.611 321.664 176.225 319.186 175.852Z" fill="white"/>
<path d="M318.514 51.7019L309.336 50.2448C308.729 50.1623 308.316 49.585 308.426 48.9802C308.509 48.3754 309.088 47.963 309.694 48.0729L318.873 49.53C319.479 49.6125 319.892 50.1898 319.782 50.7946C319.672 51.3995 319.093 51.7843 318.514 51.7019Z" fill="white"/>
<path d="M297.922 165.843C297.536 168.157 295.409 169.7 293.089 169.362C290.769 168.977 289.223 166.856 289.561 164.542C289.948 162.228 292.074 160.685 294.394 161.023C296.714 161.36 298.309 163.53 297.922 165.843Z" fill="black"/>
<g clip-path="url(#clip0_1226_38)">
<path d="M309.035 108.351C308.954 107.799 308.771 107.16 308.412 106.658C308.156 106.301 307.806 106.02 307.339 105.891C305.586 105.422 302.65 105.268 302.65 105.268C302.65 105.268 301.017 115.057 300.96 115.367C302.054 115.554 302.632 115.534 302.632 115.534L303.289 111.608L305.468 111.97C305.913 112.044 306.341 112.04 306.742 111.959C306.742 111.959 306.747 111.96 306.752 111.956C307.159 111.871 307.52 111.718 307.843 111.492C307.929 111.431 308.011 111.368 308.089 111.3C308.104 111.181 308.119 111.056 308.139 110.938C308.295 110.004 308.603 109.137 309.035 108.351ZM306.878 110.322C306.775 110.421 306.653 110.482 306.519 110.491C305.56 110.534 303.526 110.19 303.526 110.19C303.526 110.19 303.824 108.286 304.074 106.886C306.453 107.114 306.453 107.114 306.855 107.267C307.204 107.401 307.376 107.923 307.396 108.504C307.168 109.076 306.99 109.686 306.878 110.322Z" fill="black"/>
<path d="M324.766 113.369C323.998 117.962 319.641 121.07 315.031 120.303C310.426 119.536 307.311 115.191 308.08 110.593C308.848 106 313.205 102.893 317.815 103.66C322.42 104.426 325.535 108.772 324.766 113.369Z" fill="white"/>
<path d="M324.261 113.621C323.814 116.292 322.111 118.44 319.862 119.569C318.251 120.285 316.373 120.526 314.427 120.202C314.249 120.173 314.076 120.139 313.905 120.1C310.105 118.991 307.606 115.281 308.094 111.301C308.109 111.182 308.124 111.057 308.144 110.939C308.3 110.005 308.608 109.138 309.045 108.353C310.638 105.461 313.912 103.721 317.356 104.213C318.106 104.353 318.825 104.559 319.494 104.817C322.833 106.277 324.89 109.862 324.261 113.621Z" fill="black"/>
<path d="M322.851 113.382C322.482 115.586 321.078 117.359 319.222 118.289C317.893 118.88 316.344 119.079 314.738 118.812C314.591 118.788 314.449 118.76 314.308 118.728C311.173 117.813 309.112 114.752 309.514 111.469C309.526 111.37 309.539 111.268 309.555 111.17C309.684 110.4 309.938 109.684 310.298 109.037C311.613 106.651 314.313 105.216 317.155 105.622C317.774 105.737 318.366 105.907 318.919 106.12C321.673 107.324 323.37 110.282 322.851 113.382Z" fill="url(#paint7_angular_1226_38)"/>
<path d="M316.83 117.546L312.839 116.217C312.651 116.155 312.553 115.951 312.614 115.768L315.461 107.263C315.523 107.075 315.728 106.977 315.911 107.038L319.898 108.367C320.086 108.428 320.184 108.632 320.123 108.815L317.276 117.316C317.218 117.509 317.014 117.607 316.83 117.546Z" fill="black"/>
<path d="M316.799 117.216L312.985 115.975C312.805 115.918 312.71 115.731 312.767 115.565L315.421 107.827C315.479 107.657 315.673 107.569 315.848 107.626L319.657 108.865C319.837 108.923 319.932 109.11 319.875 109.276L317.222 117.009C317.168 117.185 316.974 117.272 316.799 117.216Z" fill="white"/>
<path d="M318.205 108.204L317.557 107.988C317.514 107.974 317.491 107.928 317.507 107.885C317.52 107.842 317.567 107.819 317.61 107.835L318.257 108.051C318.3 108.064 318.323 108.111 318.307 108.153C318.292 108.196 318.246 108.217 318.205 108.204Z" fill="white"/>
<path d="M315.452 116.266C315.373 116.497 315.128 116.618 314.896 116.544C314.665 116.465 314.543 116.222 314.617 115.99C314.697 115.76 314.941 115.638 315.173 115.712C315.405 115.786 315.531 116.036 315.452 116.266Z" fill="black"/>
<path d="M313.903 111.349L312.47 115.628C312.39 115.863 312.52 116.118 312.756 116.198L313.986 116.606L313.917 112.255L314.189 111.701L313.903 111.349Z" fill="white"/>
<path d="M313.902 111.349C313.769 111.875 313.615 112.397 313.457 112.914C313.378 113.175 313.295 113.43 313.215 113.691L312.964 114.466L312.703 115.235L312.567 115.619C312.557 115.652 312.547 115.676 312.542 115.706C312.538 115.731 312.533 115.76 312.534 115.786C312.535 115.842 312.547 115.894 312.573 115.95C312.6 116 312.633 116.046 312.684 116.08C312.729 116.113 312.782 116.132 312.849 116.158L313.231 116.303C313.485 116.401 313.738 116.499 313.99 116.607C313.726 116.542 313.463 116.468 313.201 116.394L312.808 116.278C312.745 116.262 312.667 116.239 312.603 116.193C312.539 116.152 312.483 116.092 312.444 116.02C312.405 115.947 312.377 115.871 312.375 115.795C312.372 115.754 312.373 115.713 312.38 115.674C312.387 115.634 312.398 115.596 312.409 115.562L312.53 115.171L312.782 114.396L313.048 113.628C313.141 113.374 313.225 113.114 313.324 112.861C313.499 112.358 313.691 111.851 313.902 111.349Z" fill="black"/>
<path d="M315.901 117.295L312.723 116.239C312.54 116.178 312.441 115.978 312.502 115.796L313.661 112.339C313.661 112.339 314.59 111.346 314.302 110.42C313.929 109.698 313.588 110.185 313.588 110.185C313.588 110.185 312.716 111.537 312.324 111.781C311.927 112.025 311.285 113.126 311.02 114.468C310.754 115.809 309.982 116.24 309.823 116.371C309.943 116.503 312.7 119.312 312.7 119.312C312.7 119.312 313.589 118.55 313.802 118.524C314.014 118.504 315.632 117.926 315.901 117.295Z" fill="url(#paint8_linear_1226_38)"/>
<path d="M317.519 116.598C317.385 116.611 317.261 116.605 317.138 116.549C317.077 116.524 317.018 116.484 316.969 116.43C316.945 116.401 316.925 116.372 316.906 116.343C316.886 116.314 316.867 116.281 316.852 116.243C316.824 116.167 316.817 116.085 316.839 116.002C316.857 115.919 316.902 115.85 316.952 115.798C317.056 115.688 317.186 115.628 317.314 115.599C317.188 115.639 317.059 115.699 316.962 115.809C316.915 115.868 316.876 115.932 316.858 116.01C316.842 116.084 316.849 116.166 316.875 116.231C316.901 116.297 316.946 116.35 316.99 116.403C317.036 116.451 317.091 116.486 317.15 116.506C317.27 116.551 317.41 116.547 317.54 116.533L317.519 116.598Z" fill="black"/>
<path d="M317.96 115.276C317.923 115.269 317.946 115.275 317.9 115.273C317.855 115.27 317.814 115.268 317.769 115.261C317.686 115.242 317.6 115.207 317.533 115.15C317.465 115.099 317.41 115.029 317.373 114.946C317.336 114.864 317.324 114.781 317.318 114.698C317.3 114.528 317.36 114.355 317.473 114.227C317.586 114.099 317.743 114.018 317.909 114C317.742 114.023 317.59 114.109 317.482 114.233C317.38 114.359 317.326 114.527 317.345 114.688C317.356 114.771 317.369 114.849 317.403 114.921C317.437 114.992 317.493 115.053 317.556 115.104C317.62 115.15 317.696 115.183 317.775 115.196C317.815 115.203 317.855 115.204 317.891 115.205C317.927 115.201 317.946 115.198 317.989 115.189L317.96 115.276Z" fill="black"/>
<path d="M318.461 113.782L318.313 113.793C318.289 113.794 318.264 113.795 318.235 113.795C318.211 113.791 318.187 113.793 318.158 113.793C318.058 113.781 317.96 113.755 317.87 113.709C317.69 113.624 317.532 113.465 317.484 113.259C317.462 113.159 317.445 113.055 317.462 112.951C317.48 112.847 317.525 112.753 317.592 112.673C317.725 112.513 317.923 112.434 318.116 112.415C317.923 112.434 317.728 112.523 317.605 112.68C317.544 112.757 317.499 112.851 317.487 112.95C317.47 113.049 317.493 113.149 317.516 113.244C317.566 113.435 317.721 113.583 317.893 113.662C317.978 113.702 318.072 113.723 318.168 113.733C318.191 113.737 318.216 113.736 318.24 113.735L318.314 113.732L318.48 113.721L318.461 113.782Z" fill="black"/>
<path d="M318.992 111.924L318.904 111.932C318.889 111.933 318.874 111.934 318.857 111.934C318.842 111.932 318.828 111.933 318.81 111.933C318.75 111.927 318.692 111.91 318.638 111.881C318.531 111.827 318.437 111.725 318.41 111.59C318.398 111.525 318.389 111.457 318.4 111.389C318.411 111.321 318.439 111.259 318.48 111.206C318.562 111.1 318.682 111.047 318.798 111.033C318.682 111.047 318.564 111.107 318.488 111.211C318.451 111.261 318.423 111.323 318.415 111.388C318.404 111.453 318.416 111.518 318.429 111.58C318.458 111.705 318.55 111.8 318.652 111.85C318.703 111.875 318.759 111.888 318.817 111.894C318.831 111.897 318.846 111.896 318.86 111.895L318.904 111.892L319.004 111.883L318.992 111.924Z" fill="black"/>
<path d="M318.154 116.447L317.54 116.527C317.29 116.562 317.06 116.387 317.025 116.137L317.019 116.08C316.985 115.831 317.16 115.601 317.41 115.567L318.024 115.486C318.274 115.452 318.505 115.627 318.539 115.876L318.545 115.933C318.585 116.183 318.409 116.413 318.154 116.447Z" fill="#97532D"/>
<path d="M319.527 113.589L318.481 113.73C318.226 113.764 317.996 113.588 317.962 113.334L317.926 113.089C317.89 112.819 318.08 112.567 318.351 112.531L319.433 112.386C319.576 112.384 319.808 112.337 319.933 112.84C320.061 113.5 319.689 113.565 319.527 113.589Z" fill="#97532D"/>
<path d="M319.318 112.289L318.503 112.386C318.304 112.41 318.093 112.318 318.065 112.129L318.035 111.947C318.005 111.747 318.257 111.636 318.468 111.61L319.311 111.51C319.423 111.51 319.761 111.401 319.861 111.775C319.966 112.266 319.444 112.273 319.318 112.289Z" fill="#97532D"/>
<path d="M319.051 115.068L318.009 115.184C317.755 115.213 317.523 115.048 317.486 114.813L317.447 114.588C317.407 114.338 317.593 114.11 317.863 114.079L318.942 113.959C319.084 113.962 319.315 113.919 319.446 114.383C319.582 114.999 319.212 115.049 319.051 115.068Z" fill="#97532D"/>
<path d="M313.603 112.446C313.727 112.314 313.839 112.165 313.94 112.015C314.042 111.859 314.13 111.701 314.199 111.53C314.269 111.359 314.323 111.185 314.344 111.001C314.354 110.911 314.355 110.815 314.349 110.727C314.344 110.635 314.323 110.546 314.303 110.456L314.248 110.355L314.303 110.456C314.328 110.546 314.349 110.636 314.359 110.729C314.369 110.822 314.369 110.913 314.358 111.008C314.342 111.193 314.292 111.373 314.226 111.55C314.162 111.722 314.073 111.89 313.976 112.046C313.878 112.202 313.771 112.357 313.645 112.499L313.603 112.446Z" fill="black"/>
<path d="M299.082 105.112C299.46 105.134 299.839 105.151 300.207 105.171L299.082 105.112Z" fill="black"/>
<path d="M301.248 108.228L301.244 108.161L301.134 106.387L301.079 105.433L301.067 105.203L300.915 105.198L300.904 105.115L301.159 105.112L301.16 105.228L301.165 105.437L301.248 108.228Z" fill="black"/>
<path d="M296.817 104.958C297.2 104.986 297.582 105.014 297.954 105.04L296.817 104.958Z" fill="black"/>
<path d="M294.531 104.755C294.916 104.794 295.298 104.827 295.673 104.864L294.531 104.755Z" fill="black"/>
<path d="M295.669 104.859C296.055 104.892 296.436 104.925 296.819 104.953L295.669 104.859Z" fill="white"/>
<path d="M297.955 105.041C298.337 105.069 298.71 105.09 299.083 105.111L297.955 105.041Z" fill="white"/>
<path d="M295.288 109.292C295.189 109.275 295.109 109.206 295.045 109.104C294.873 108.822 294.809 108.263 294.912 107.646C294.909 107.665 294.906 107.68 294.903 107.7C294.749 108.527 294.362 109.138 294.02 109.081C294.001 109.078 293.987 109.07 293.967 109.067C293.967 109.067 293.287 113.131 293.256 113.284C294.11 114.172 299.953 115.144 299.953 115.144C299.975 115.046 300.25 113.554 300.274 113.314C300.274 113.314 296.09 112.862 295.162 112.022L295.599 109.501C295.602 109.456 295.61 109.406 295.622 109.363C295.625 109.348 295.627 109.333 295.624 109.322C295.619 109.261 295.629 109.201 295.645 109.138C295.523 109.255 295.402 109.311 295.288 109.292Z" fill="black"/>
<path d="M299.082 105.111L298.741 108.065L298.716 108.274L298.726 108.275L299.984 108.485L299.984 108.48L300.006 108.077L300.122 106.32L300.132 106.321L300.208 105.167C299.839 105.151 299.461 105.129 299.082 105.111Z" fill="url(#paint9_linear_1226_38)"/>
<path d="M295.874 107.8L294.918 107.641L294.913 107.641L294.912 107.646L295.874 107.8Z" fill="black"/>
<path opacity="0.4" d="M295.874 107.8L294.918 107.641L294.913 107.641L294.912 107.646L295.874 107.8Z" fill="black"/>
<path d="M294.903 107.7C294.906 107.68 294.909 107.665 294.912 107.646L294.913 107.641L294.225 107.526L293.646 107.43C293.514 108.215 293.644 108.896 293.934 109.051C293.943 109.058 293.958 109.06 293.967 109.067C293.986 109.075 294.001 109.078 294.021 109.081C294.362 109.138 294.75 108.527 294.903 107.7Z" fill="#092140"/>
<path d="M295.874 107.8L294.912 107.646C294.809 108.263 294.873 108.822 295.045 109.104C295.109 109.206 295.189 109.275 295.288 109.292C295.402 109.311 295.524 109.255 295.64 109.137C295.866 108.911 296.069 108.457 296.171 107.911C296.174 107.891 296.177 107.871 296.181 107.852L295.874 107.8Z" fill="#DADADA"/>
<path d="M296.181 107.852C296.177 107.871 296.174 107.891 296.171 107.911C296.115 108.308 296.119 108.679 296.183 108.964C296.249 109.269 296.378 109.473 296.556 109.503C296.898 109.56 297.285 108.949 297.438 108.122C297.442 108.102 297.445 108.082 297.448 108.062L296.181 107.852Z" fill="#092140"/>
<path d="M297.438 108.122C297.315 108.949 297.482 109.657 297.823 109.714C298.002 109.743 298.19 109.592 298.352 109.324C298.504 109.081 298.634 108.732 298.706 108.333C298.709 108.313 298.713 108.293 298.716 108.273L297.448 108.062C297.445 108.082 297.442 108.102 297.438 108.122Z" fill="#DADADA"/>
<path d="M298.716 108.329C298.702 108.418 298.693 108.503 298.684 108.583C298.669 108.733 298.667 108.869 298.675 109.003L298.674 109.007C298.677 109.145 298.697 109.27 298.719 109.38C298.735 109.464 298.758 109.539 298.783 109.604C298.854 109.789 298.962 109.903 299.091 109.924C299.185 109.94 299.288 109.901 299.383 109.821C299.418 109.796 299.454 109.762 299.486 109.721C299.512 109.69 299.538 109.654 299.565 109.618C299.705 109.418 299.83 109.129 299.916 108.793C299.944 108.691 299.965 108.593 299.983 108.484L298.726 108.275C298.722 108.295 298.72 108.309 298.716 108.329Z" fill="#092140"/>
<path d="M300.196 110.047C300.249 110.097 300.305 110.126 300.364 110.136C300.394 110.141 300.425 110.141 300.456 110.136C300.78 110.084 301.126 109.476 301.257 108.696L299.988 108.49C299.871 109.191 299.965 109.816 300.196 110.047Z" fill="#DADADA"/>
<path d="M296.181 107.851L297.449 108.062L297.954 105.04C297.582 105.014 297.2 104.986 296.818 104.958L296.226 107.646L296.181 107.851Z" fill="url(#paint10_linear_1226_38)"/>
<path d="M293.651 107.431L294.225 107.526L294.913 107.641L295.02 107.248L295.669 104.858C295.293 104.826 294.912 104.788 294.527 104.749L293.832 106.862C293.767 107.039 293.711 107.223 293.651 107.431Z" fill="url(#paint11_linear_1226_38)"/>
<path d="M295.874 107.801L296.181 107.852L296.225 107.646L296.817 104.958C296.44 104.931 296.059 104.898 295.668 104.863L295.019 107.252L294.912 107.646L294.917 107.647L295.873 107.806L295.874 107.801Z" fill="white"/>
<path d="M299.083 105.111C298.71 105.09 298.337 105.068 297.955 105.04L297.449 108.062L298.717 108.273L298.741 108.064L299.083 105.111Z" fill="white"/>
<path d="M301.257 108.696L299.989 108.485L300.016 108.079L300.132 106.321L300.208 105.166C300.451 105.176 300.693 105.186 300.931 105.195C300.946 105.198 300.962 105.195 300.972 105.197C301.002 105.197 301.033 105.197 301.067 105.203L301.122 106.156L301.232 107.931L301.236 107.997L301.235 108.002L301.234 108.007L301.271 108.612C301.262 108.636 301.262 108.666 301.257 108.696Z" fill="white"/>
<path d="M311.308 117.7C306.822 117.624 304.325 117.369 301.117 117.079C284.525 115.562 283.521 111.735 283.453 111.566C283.453 111.561 283.685 111.574 283.686 111.569C284.101 111.552 284.054 111.016 284.036 110.815C283.571 107.332 283.077 105.717 283.067 105.685C283.029 105.425 282.954 105.239 282.842 105.145C282.726 105.049 282.524 104.98 282.218 104.95L282.068 104.935C282.058 104.933 282.054 104.927 282.056 104.918L282.089 104.598L284.904 104.686L285.34 108.921C285.343 108.936 285.363 108.94 285.37 108.926L286.895 106.261C287.075 105.946 287.404 105.741 287.768 105.726C288.066 105.709 288.363 105.698 288.363 105.698C288.368 105.699 288.372 105.705 288.376 105.71L289.126 109.322C289.128 109.338 289.148 109.341 289.156 109.327L290.589 104.865L293.317 104.954L293.2 106.082C293.198 106.091 293.192 106.096 293.183 106.094L293.018 106.077C292.717 106.047 292.5 106.067 292.366 106.141C292.231 106.215 292.122 106.379 292.04 106.625L290.018 111.933C289.99 112.009 289.933 112.132 289.77 112.226C289.714 112.258 289.652 112.263 289.593 112.248L288.345 111.923C287.554 109.228 287.388 108.759 287.388 108.759C287.383 108.728 286.925 108.362 285.802 110.998C285.726 111.178 285.584 111.418 285.5 111.678C285.23 112.166 288.293 115.062 301.184 116.643C304.361 117.035 306.831 117.387 311.295 117.561C311.318 117.575 311.328 117.699 311.308 117.7Z" fill="url(#paint12_linear_1226_38)"/>
<g clip-path="url(#clip1_1226_38)">
<path d="M331.88 124.544C331.882 124.486 331.874 124.418 331.847 124.361C331.827 124.32 331.797 124.285 331.752 124.264C331.583 124.185 331.288 124.118 331.288 124.118C331.288 124.118 330.948 125.083 330.937 125.114C331.044 125.152 331.103 125.16 331.103 125.16L331.24 124.773L331.454 124.848C331.498 124.864 331.541 124.871 331.583 124.87C331.583 124.87 331.584 124.87 331.584 124.87C331.627 124.868 331.666 124.859 331.703 124.842C331.713 124.837 331.722 124.832 331.732 124.827C331.735 124.815 331.739 124.802 331.743 124.791C331.776 124.699 331.822 124.616 331.88 124.544ZM331.626 124.706C331.614 124.714 331.601 124.718 331.587 124.717C331.489 124.704 331.289 124.633 331.289 124.633C331.289 124.633 331.353 124.445 331.403 124.307C331.64 124.372 331.64 124.372 331.678 124.395C331.711 124.415 331.72 124.471 331.711 124.53C331.678 124.584 331.649 124.643 331.626 124.706Z" fill="black"/>
<path d="M333.385 125.332C333.226 125.785 332.729 126.024 332.275 125.864C331.822 125.705 331.584 125.208 331.744 124.755C331.904 124.302 332.4 124.063 332.854 124.223C333.307 124.382 333.545 124.879 333.385 125.332Z" fill="white"/>
<path d="M333.329 125.349C333.237 125.612 333.026 125.8 332.778 125.875C332.602 125.919 332.407 125.911 332.216 125.843C332.198 125.837 332.181 125.831 332.165 125.824C331.799 125.644 331.612 125.223 331.733 124.827C331.736 124.815 331.74 124.803 331.744 124.791C331.777 124.699 331.823 124.616 331.881 124.544C332.094 124.279 332.457 124.16 332.797 124.271C332.871 124.298 332.94 124.332 333.003 124.37C333.316 124.577 333.46 124.978 333.329 125.349Z" fill="black"/>
<path d="M333.191 125.299C333.114 125.517 332.94 125.672 332.736 125.734C332.59 125.77 332.43 125.763 332.272 125.707C332.257 125.702 332.244 125.697 332.23 125.691C331.929 125.543 331.774 125.195 331.873 124.869C331.876 124.859 331.879 124.849 331.883 124.84C331.91 124.764 331.948 124.695 331.996 124.636C332.172 124.417 332.471 124.319 332.752 124.41C332.812 124.433 332.869 124.461 332.922 124.492C333.179 124.663 333.298 124.994 333.191 125.299Z" fill="url(#paint13_angular_1226_38)"/>
<path d="M332.507 125.616L332.126 125.41C332.108 125.401 332.102 125.378 332.111 125.361L332.551 124.547C332.561 124.529 332.583 124.523 332.601 124.532L332.981 124.738C332.999 124.747 333.005 124.77 332.996 124.787L332.556 125.6C332.547 125.619 332.524 125.625 332.507 125.616Z" fill="black"/>
<path d="M332.51 125.582L332.145 125.388C332.128 125.379 332.122 125.359 332.13 125.343L332.537 124.604C332.546 124.587 332.567 124.582 332.584 124.591L332.948 124.784C332.965 124.793 332.971 124.814 332.963 124.83L332.556 125.568C332.548 125.585 332.526 125.591 332.51 125.582Z" fill="white"/>
<path d="M332.32 124.935L332.099 125.344C332.086 125.367 332.095 125.395 332.118 125.407L332.235 125.47L332.306 125.027L332.343 124.976L332.32 124.935Z" fill="white"/>
<path d="M332.321 124.935C332.298 124.986 332.273 125.036 332.248 125.086C332.235 125.111 332.222 125.135 332.209 125.16L332.17 125.235L332.13 125.308L332.109 125.345C332.108 125.348 332.106 125.35 332.105 125.353C332.104 125.356 332.103 125.359 332.103 125.361C332.102 125.367 332.102 125.372 332.104 125.378C332.106 125.384 332.108 125.389 332.113 125.394C332.117 125.398 332.122 125.401 332.128 125.404L332.164 125.426C332.188 125.44 332.212 125.455 332.236 125.47C332.21 125.459 332.185 125.447 332.16 125.435L332.122 125.416C332.116 125.413 332.108 125.41 332.103 125.404C332.097 125.398 332.092 125.391 332.09 125.383C332.087 125.375 332.086 125.367 332.087 125.359C332.087 125.355 332.088 125.351 332.089 125.347C332.091 125.343 332.093 125.339 332.094 125.336L332.113 125.299L332.153 125.224L332.193 125.151C332.207 125.127 332.221 125.102 332.235 125.078C332.262 125.03 332.29 124.982 332.321 124.935Z" fill="black"/>
<path d="M332.417 125.574L332.114 125.411C332.096 125.401 332.09 125.379 332.099 125.362L332.278 125.031C332.278 125.031 332.39 124.947 332.377 124.848C332.352 124.768 332.309 124.811 332.309 124.811C332.309 124.811 332.197 124.933 332.152 124.951C332.108 124.969 332.023 125.069 331.972 125.201C331.922 125.332 331.764 125.41 331.746 125.42C331.755 125.436 331.985 125.77 331.985 125.77C331.985 125.77 332.16 125.661 332.182 125.662C332.204 125.664 332.378 125.634 332.417 125.574Z" fill="white"/>
<path d="M330.93 124.039C330.968 124.048 331.006 124.056 331.043 124.065L330.93 124.039Z" fill="black"/>
<path d="M331.093 124.394L331.094 124.387L331.114 124.205L331.126 124.107L331.129 124.083L331.113 124.08L331.114 124.072L331.14 124.076L331.138 124.088L331.134 124.109L331.093 124.394Z" fill="black"/>
<path d="M330.703 123.983C330.742 123.993 330.78 124.003 330.817 124.012L330.703 123.983Z" fill="black"/>
<path d="M330.475 123.922C330.513 123.933 330.551 123.943 330.589 123.953L330.475 123.922Z" fill="black"/>
<path d="M330.589 123.953C330.627 123.963 330.665 123.973 330.703 123.983L330.589 123.953Z" fill="white"/>
<path d="M330.817 124.012C330.856 124.022 330.893 124.03 330.93 124.039L330.817 124.012Z" fill="white"/>
<path d="M330.471 124.397C330.461 124.393 330.454 124.385 330.449 124.373C330.437 124.341 330.44 124.284 330.462 124.223C330.461 124.225 330.461 124.226 330.46 124.228C330.43 124.309 330.379 124.365 330.346 124.353C330.344 124.352 330.343 124.351 330.341 124.35C330.341 124.35 330.199 124.751 330.194 124.766C330.264 124.871 330.839 125.074 330.839 125.074C330.843 125.064 330.897 124.917 330.904 124.893C330.904 124.893 330.488 124.773 330.409 124.672L330.498 124.423C330.499 124.419 330.501 124.414 330.503 124.41C330.504 124.408 330.504 124.407 330.504 124.406C330.505 124.399 330.507 124.393 330.509 124.387C330.495 124.397 330.482 124.401 330.471 124.397Z" fill="black"/>
<path d="M330.93 124.039L330.843 124.333L330.837 124.354L330.838 124.354L330.961 124.398L330.962 124.397L330.971 124.357L331.014 124.18L331.015 124.181L331.043 124.065C331.006 124.056 330.968 124.047 330.93 124.039Z" fill="url(#paint14_linear_1226_38)"/>
<path d="M330.556 124.256L330.462 124.223L330.462 124.222L330.462 124.223L330.556 124.256Z" fill="black"/>
<path opacity="0.4" d="M330.556 124.256L330.462 124.223L330.462 124.222L330.462 124.223L330.556 124.256Z" fill="black"/>
<path d="M330.46 124.228C330.46 124.226 330.461 124.225 330.461 124.223L330.462 124.222L330.394 124.198L330.337 124.178C330.31 124.256 330.311 124.327 330.337 124.348C330.338 124.349 330.34 124.35 330.34 124.35C330.342 124.352 330.344 124.352 330.346 124.353C330.379 124.365 330.429 124.309 330.46 124.228Z" fill="#092140"/>
<path d="M330.556 124.256L330.462 124.223C330.44 124.284 330.437 124.342 330.449 124.373C330.454 124.385 330.461 124.393 330.471 124.397C330.482 124.401 330.495 124.397 330.509 124.387C330.536 124.368 330.565 124.326 330.585 124.272C330.585 124.27 330.586 124.268 330.587 124.266L330.556 124.256Z" fill="#DADADA"/>
<path d="M330.587 124.266C330.586 124.268 330.586 124.27 330.585 124.272C330.572 124.311 330.566 124.349 330.567 124.379C330.569 124.411 330.578 124.434 330.596 124.44C330.629 124.452 330.679 124.397 330.71 124.316C330.71 124.314 330.711 124.312 330.712 124.31L330.587 124.266Z" fill="#092140"/>
<path d="M330.71 124.316C330.683 124.398 330.687 124.473 330.721 124.484C330.738 124.491 330.76 124.479 330.781 124.454C330.801 124.432 330.82 124.399 330.835 124.36C330.835 124.358 330.836 124.356 330.837 124.354L330.712 124.31C330.711 124.312 330.711 124.314 330.71 124.316Z" fill="#DADADA"/>
<path d="M330.835 124.36C330.832 124.368 330.83 124.377 330.827 124.385C330.823 124.4 330.82 124.414 330.819 124.427L330.819 124.428C330.816 124.442 330.816 124.455 330.817 124.466C330.817 124.475 330.818 124.483 330.819 124.49C330.823 124.51 330.832 124.524 330.845 124.528C330.854 124.532 330.865 124.529 330.876 124.523C330.88 124.521 330.884 124.518 330.888 124.515C330.891 124.512 330.895 124.509 330.898 124.505C330.916 124.488 330.934 124.46 330.948 124.428C330.953 124.418 330.957 124.408 330.961 124.398L330.837 124.354C330.836 124.356 330.836 124.358 330.835 124.36Z" fill="#092140"/>
<path d="M330.955 124.56C330.96 124.566 330.965 124.57 330.971 124.572C330.973 124.573 330.977 124.574 330.98 124.574C331.014 124.574 331.059 124.518 331.087 124.442L330.962 124.398C330.937 124.467 330.936 124.532 330.955 124.56Z" fill="#DADADA"/>
<path d="M330.587 124.266L330.712 124.31L330.817 124.012C330.78 124.003 330.742 123.993 330.703 123.983L330.596 124.246L330.587 124.266Z" fill="url(#paint15_linear_1226_38)"/>
<path d="M330.338 124.179L330.395 124.199L330.462 124.222L330.48 124.184L330.588 123.953C330.551 123.943 330.513 123.933 330.475 123.922L330.367 124.124C330.357 124.141 330.348 124.159 330.338 124.179Z" fill="url(#paint16_linear_1226_38)"/>
<path d="M330.557 124.255L330.587 124.266L330.595 124.246L330.703 123.983C330.665 123.974 330.627 123.964 330.588 123.953L330.48 124.185L330.462 124.223L330.462 124.223L330.556 124.256L330.557 124.255Z" fill="white"/>
<path d="M330.93 124.039C330.893 124.03 330.856 124.022 330.817 124.012L330.712 124.31L330.837 124.354L330.843 124.333L330.93 124.039Z" fill="white"/>
<path d="M331.087 124.441L330.962 124.398L330.972 124.357L331.015 124.18L331.043 124.064C331.068 124.07 331.092 124.075 331.116 124.08C331.117 124.081 331.119 124.081 331.12 124.081C331.123 124.082 331.126 124.082 331.13 124.083L331.118 124.181L331.098 124.363L331.097 124.37L331.097 124.371L331.097 124.371L331.09 124.433C331.088 124.435 331.088 124.439 331.087 124.441Z" fill="white"/>
<path d="M332.076 125.552C331.623 125.465 331.242 125.377 330.922 125.291C329.268 124.843 329.234 124.437 329.231 124.418C329.231 124.418 329.254 124.423 329.254 124.423C329.296 124.428 329.301 124.373 329.303 124.352C329.318 123.99 329.297 123.818 329.296 123.814C329.297 123.787 329.293 123.767 329.283 123.755C329.273 123.743 329.254 123.733 329.223 123.724L329.208 123.72C329.207 123.72 329.207 123.719 329.207 123.718L329.216 123.686L329.5 123.745L329.469 124.183C329.469 124.185 329.471 124.185 329.472 124.184L329.674 123.94C329.698 123.911 329.735 123.897 329.772 123.901C329.802 123.905 329.833 123.909 329.833 123.909C329.833 123.909 329.833 123.91 329.834 123.911L329.845 124.291C329.845 124.292 329.847 124.293 329.848 124.292L330.073 123.864L330.348 123.921L330.316 124.034C330.316 124.034 330.315 124.035 330.314 124.034L330.297 124.03C330.268 124.021 330.245 124.02 330.23 124.025C330.215 124.03 330.201 124.045 330.189 124.068L329.889 124.572C329.885 124.579 329.877 124.59 329.859 124.597C329.853 124.599 329.846 124.599 329.841 124.596L329.72 124.541C329.688 124.253 329.679 124.203 329.679 124.203C329.679 124.199 329.639 124.154 329.479 124.402C329.468 124.419 329.449 124.441 329.436 124.466C329.4 124.511 329.659 124.859 330.937 125.248C331.252 125.343 331.628 125.441 332.077 125.538C332.079 125.54 332.078 125.552 332.076 125.552Z" fill="url(#paint17_linear_1226_38)"/>
</g>
</g>
<path d="M34.8846 167.683C36.2182 169.854 76.2268 276.618 248.474 193.169V191.769C90.1946 244.275 60.7849 171.884 63.3819 164.533C63.9434 160.753 65.3472 157.112 65.979 154.452C75.3845 115.528 82.5439 119.518 82.6843 119.938C82.6843 119.938 86.0534 126.029 103.18 161.383L121.149 162.993C121.991 163.063 122.833 162.853 123.535 162.293C125.571 160.613 126.062 158.793 126.273 157.672L141.925 79.8241C142.486 76.2537 143.61 73.7334 145.294 72.4033C146.979 71.0732 149.927 70.3031 154.138 70.023L156.454 69.883C156.595 69.883 156.665 69.813 156.665 69.673L155.682 53.8513L117.85 58.8919L108.374 123.719C108.304 123.929 108.023 123.929 107.953 123.719L89.2822 75.6236C89.212 75.5536 89.1418 75.4836 89.0716 75.4836C89.0716 75.4836 85.0006 76.3237 80.9295 77.2338C75.946 78.2839 71.875 81.8543 70.1202 86.6148L55.2398 126.869C55.1696 127.079 54.8889 127.079 54.8187 126.869L39.0259 69.463L0 74.7136L0.280763 79.194C0.280763 79.334 0.35095 79.404 0.491331 79.404L2.59704 79.264C6.87866 78.984 9.82665 79.4741 11.6516 80.5242C13.4064 81.5743 14.8804 83.9545 16.0034 87.4549C16.214 87.8749 26.7425 109.017 41.2018 155.992L41.2099 156.024C41.9181 158.778 43.7769 166.008 38.1134 167.193C38.1134 167.263 34.8846 167.613 34.8846 167.683Z" fill="black"/>
<path d="M143.366 40.566C146.529 40.2295 149.692 39.8509 152.771 39.5144L143.366 40.566Z" fill="black"/>
<path d="M165.634 63.4069L165.507 62.8601L162.133 48.3058L160.362 40.4818L159.94 38.5889L158.675 38.7572L158.464 38.0842L160.573 37.7056L160.741 38.6731L161.079 40.3977L165.634 63.4069Z" fill="black"/>
<path d="M124.387 42.4168C127.592 42.1224 130.797 41.8279 133.918 41.5334L124.387 42.4168Z" fill="black"/>
<path d="M105.155 43.8889C108.403 43.6785 111.608 43.4261 114.771 43.2158L105.155 43.8889Z" fill="black"/>
<path d="M114.729 43.174C117.976 42.9216 121.181 42.6692 124.386 42.3748L114.729 43.174Z" fill="white"/>
<path d="M133.919 41.5334C137.124 41.2389 140.245 40.9024 143.366 40.5659L133.919 41.5334Z" fill="white"/>
<path d="M143.366 40.5658L144.631 65.5101L144.716 67.2768H144.8H155.512V67.2347L155.133 63.8696L153.657 49.147H153.741L152.771 39.4722C149.692 39.8507 146.529 40.1873 143.366 40.5658Z" fill="url(#paint18_linear_1226_38)"/>
<path d="M120.507 67.2769H112.367H112.325V67.3192L120.507 67.2769Z" fill="black"/>
<path opacity="0.4" d="M120.507 67.2769H112.367H112.325V67.3192L120.507 67.2769Z" fill="black"/>
<path d="M112.325 67.7816C112.325 67.6134 112.325 67.4872 112.325 67.3189V67.2769H106.463H101.528C101.528 73.9651 103.553 79.4335 106.168 80.3168C106.252 80.3589 106.378 80.3589 106.463 80.4009C106.631 80.443 106.758 80.443 106.927 80.443C109.837 80.443 112.198 74.8484 112.325 67.7816Z" fill="#092140"/>
<path d="M120.507 67.2769L112.325 67.3189C112.325 72.577 113.633 77.1199 115.446 79.2231C116.121 79.9803 116.88 80.443 117.724 80.443C118.694 80.443 119.621 79.8121 120.423 78.6763C121.983 76.489 123.037 72.4508 123.122 67.7816C123.122 67.6134 123.122 67.4451 123.122 67.2769H120.507Z" fill="#DADADA"/>
<path d="M123.121 67.2769C123.121 67.4451 123.121 67.6134 123.121 67.7816C123.205 71.1468 123.754 74.2175 124.682 76.489C125.652 78.9287 127.001 80.443 128.519 80.443C131.429 80.443 133.791 74.8484 133.918 67.7816C133.918 67.6134 133.918 67.4451 133.918 67.2769H123.121Z" fill="#092140"/>
<path d="M133.919 67.7816C134.045 74.8064 136.407 80.443 139.317 80.443C140.836 80.443 142.185 78.9287 143.155 76.489C144.083 74.2595 144.673 71.1888 144.716 67.7816C144.716 67.6134 144.716 67.4451 144.716 67.2769H133.919C133.919 67.4451 133.919 67.6134 133.919 67.7816Z" fill="#DADADA"/>
<path d="M144.8 67.7396C144.8 68.4967 144.842 69.2118 144.884 69.8848C144.969 71.1468 145.137 72.2825 145.39 73.3762V73.4183C145.601 74.554 145.939 75.5635 146.276 76.4469C146.529 77.1199 146.824 77.7088 147.119 78.2136C147.963 79.6438 149.017 80.443 150.114 80.443C150.915 80.443 151.716 79.9803 152.391 79.1811C152.644 78.9287 152.897 78.5922 153.108 78.2136C153.277 77.9192 153.446 77.5826 153.614 77.2461C154.5 75.3953 155.133 72.8294 155.386 69.9269C155.47 69.0436 155.512 68.2023 155.512 67.2769H144.8C144.8 67.4451 144.8 67.5713 144.8 67.7396Z" fill="#092140"/>
<path d="M159.434 79.9382C159.94 80.2748 160.446 80.443 160.952 80.443C161.205 80.443 161.458 80.401 161.711 80.3168C164.326 79.4335 166.35 73.923 166.35 67.2769L155.554 67.3189C155.554 73.2921 157.199 78.3398 159.434 79.9382Z" fill="#DADADA"/>
<path d="M123.121 67.2769H133.918V41.5334C130.797 41.8279 127.592 42.1224 124.386 42.4168L123.205 65.5102L123.121 67.2769Z" fill="url(#paint19_linear_1226_38)"/>
<path d="M101.571 67.2768H106.464H112.326L112.663 63.8695L114.73 43.1738C111.567 43.4262 108.361 43.6365 105.114 43.8469L102.288 62.3132C101.993 63.8695 101.782 65.468 101.571 67.2768Z" fill="url(#paint20_linear_1226_38)"/>
<path d="M120.507 67.2768H123.122L123.206 65.5101L124.387 42.4167C121.224 42.7112 118.019 42.9636 114.729 43.216L112.663 63.9117L112.325 67.3189H112.367H120.507V67.2768Z" fill="white"/>
<path d="M143.366 40.5659C140.245 40.9024 137.124 41.2389 133.919 41.5334V67.2768H144.716L144.631 65.5101L143.366 40.5659Z" fill="white"/>
<path d="M166.351 67.2768H155.554L155.217 63.8696L153.741 49.147L152.771 39.4722C154.795 39.2198 156.819 38.9675 158.801 38.7151C158.928 38.7151 159.054 38.673 159.139 38.673C159.392 38.6309 159.645 38.5889 159.94 38.5889L161.711 46.4129L165.085 60.9672L165.212 61.514V61.5561V61.5981L166.351 66.5617C166.308 66.7721 166.351 67.0244 166.351 67.2768Z" fill="white"/>
<g filter="url(#filter1_d_1226_38)">
<ellipse rx="5.75299" ry="5.74083" transform="matrix(0.956641 -0.291271 0.292592 0.956237 373.184 71.7778)" fill="white"/>
<ellipse rx="15.2589" ry="15.2272" transform="matrix(0.956644 -0.291261 0.292602 0.956234 355.256 32.0149)" fill="white"/>
<ellipse rx="10.5275" ry="10.5053" transform="matrix(0.956642 -0.291269 0.292594 0.956236 373.189 53.7556)" fill="white"/>
</g>
<defs>
<filter id="filter0_d_1226_38" x="219.186" y="77.7905" width="97.4619" height="134.631" filterUnits="userSpaceOnUse" color-interpolation-filters="sRGB">
<feFlood flood-opacity="0" result="BackgroundImageFix"/>
<feColorMatrix in="SourceAlpha" type="matrix" values="0 0 0 0 0 0 0 0 0 0 0 0 0 0 0 0 0 0 127 0" result="hardAlpha"/>
<feOffset dx="1" dy="-4"/>
<feGaussianBlur stdDeviation="2"/>
<feComposite in2="hardAlpha" operator="out"/>
<feColorMatrix type="matrix" values="0 0 0 0 0 0 0 0 0 0 0 0 0 0 0 0 0 0 0.62 0"/>
<feBlend mode="normal" in2="BackgroundImageFix" result="effect1_dropShadow_1226_38"/>
<feBlend mode="normal" in="SourceGraphic" in2="effect1_dropShadow_1226_38" result="shape"/>
</filter>
<filter id="filter1_d_1226_38" x="332.99" y="12.7869" width="51.7314" height="68.7322" filterUnits="userSpaceOnUse" color-interpolation-filters="sRGB">
<feFlood flood-opacity="0" result="BackgroundImageFix"/>
<feColorMatrix in="SourceAlpha" type="matrix" values="0 0 0 0 0 0 0 0 0 0 0 0 0 0 0 0 0 0 127 0" result="hardAlpha"/>
<feOffset dx="-3"/>
<feGaussianBlur stdDeviation="2"/>
<feComposite in2="hardAlpha" operator="out"/>
<feColorMatrix type="matrix" values="0 0 0 0 0 0 0 0 0 0 0 0 0 0 0 0 0 0 0.39 0"/>
<feBlend mode="normal" in2="BackgroundImageFix" result="effect1_dropShadow_1226_38"/>
<feBlend mode="normal" in="SourceGraphic" in2="effect1_dropShadow_1226_38" result="shape"/>
</filter>
<radialGradient id="paint0_angular_1226_38" cx="0" cy="0" r="1" gradientUnits="userSpaceOnUse" gradientTransform="translate(300.778 96.8882) rotate(91.712) scale(239.087 240.375)">
<stop offset="0.225859" stop-color="#F5F5AC"/>
<stop offset="0.323726" stop-color="#F5F5DE"/>
<stop offset="0.46638" stop-color="#FFFF48"/>
<stop offset="0.732046" stop-color="#FFE73C"/>
<stop offset="1" stop-color="#C37500"/>
</radialGradient>
<linearGradient id="paint1_linear_1226_38" x1="324.3" y1="117.413" x2="334.556" y2="116.101" gradientUnits="userSpaceOnUse">
<stop stop-color="#F2CECE"/>
<stop offset="1" stop-color="#F8C0A1"/>
</linearGradient>
<linearGradient id="paint2_linear_1226_38" x1="325.318" y1="139.648" x2="333.955" y2="137.914" gradientUnits="userSpaceOnUse">
<stop stop-color="#F2CECE"/>
<stop offset="1" stop-color="#F8C0A1"/>
</linearGradient>
<linearGradient id="paint3_linear_1226_38" x1="321.944" y1="159.351" x2="328.468" y2="158.495" gradientUnits="userSpaceOnUse">
<stop stop-color="#F2CECE"/>
<stop offset="1" stop-color="#F8C0A1"/>
</linearGradient>
<linearGradient id="paint4_linear_1226_38" x1="329.896" y1="92.4896" x2="338.63" y2="92.4896" gradientUnits="userSpaceOnUse">
<stop stop-color="#F2CECE"/>
<stop offset="1" stop-color="#F8C0A1"/>
</linearGradient>
<linearGradient id="paint5_linear_1226_38" x1="305.33" y1="97.959" x2="226.308" y2="222.059" gradientUnits="userSpaceOnUse">
<stop offset="0.192778" stop-color="#B56335"/>
<stop offset="0.297841" stop-color="#99542D"/>
<stop offset="0.3806" stop-color="#884B28"/>
<stop offset="0.445767" stop-color="#7D4525"/>
<stop offset="0.515796" stop-color="#5B321B"/>
<stop offset="0.580298" stop-color="#402110"/>
<stop offset="0.68613"/>
</linearGradient>
<linearGradient id="paint6_linear_1226_38" x1="311.647" y1="101.459" x2="226.311" y2="222.082" gradientUnits="userSpaceOnUse">
<stop offset="0.409849"/>
<stop offset="0.73094" stop-color="#010101"/>
</linearGradient>
<radialGradient id="paint7_angular_1226_38" cx="0" cy="0" r="1" gradientUnits="userSpaceOnUse" gradientTransform="translate(316.372 111.265) rotate(101.207) scale(17.5638 17.655)">
<stop offset="0.225859" stop-color="#A4FFEC"/>
<stop offset="0.323726" stop-color="#64EEFA"/>
<stop offset="0.46638" stop-color="#3DBDFF"/>
<stop offset="0.732046" stop-color="#1677C5"/>
<stop offset="1" stop-color="#124CA2"/>
</radialGradient>
<linearGradient id="paint8_linear_1226_38" x1="316.693" y1="111.403" x2="309.377" y2="119.315" gradientUnits="userSpaceOnUse">
<stop offset="0.192778" stop-color="#B56335"/>
<stop offset="0.297841" stop-color="#99542D"/>
<stop offset="0.500677" stop-color="#7A4324"/>
<stop offset="0.601362" stop-color="#552E19"/>
<stop offset="0.764413"/>
</linearGradient>
<linearGradient id="paint9_linear_1226_38" x1="299.817" y1="105.102" x2="299.273" y2="108.366" gradientUnits="userSpaceOnUse">
<stop stop-color="#A4FFEC"/>
<stop offset="0.143457" stop-color="#64EEFA"/>
<stop offset="0.315336" stop-color="#3DBDFF"/>
<stop offset="0.669509" stop-color="#1677C5"/>
<stop offset="0.778886" stop-color="#124CA2"/>
<stop offset="0.976806" stop-color="#111E80"/>
</linearGradient>
<linearGradient id="paint10_linear_1226_38" x1="297.32" y1="104.935" x2="296.817" y2="107.957" gradientUnits="userSpaceOnUse">
<stop stop-color="#A4FFEC"/>
<stop offset="0.143457" stop-color="#64EEFA"/>
<stop offset="0.315336" stop-color="#3DBDFF"/>
<stop offset="0.669509" stop-color="#1677C5"/>
<stop offset="0.778886" stop-color="#124CA2"/>
<stop offset="0.976806" stop-color="#111E80"/>
</linearGradient>
<linearGradient id="paint11_linear_1226_38" x1="294.896" y1="104.73" x2="294.426" y2="107.56" gradientUnits="userSpaceOnUse">
<stop stop-color="#A4FFEC"/>
<stop offset="0.143457" stop-color="#64EEFA"/>
<stop offset="0.315336" stop-color="#3DBDFF"/>
<stop offset="0.669509" stop-color="#1677C5"/>
<stop offset="0.778886" stop-color="#124CA2"/>
<stop offset="0.976806" stop-color="#111E80"/>
</linearGradient>
<linearGradient id="paint12_linear_1226_38" x1="283.432" y1="106.791" x2="321.909" y2="120.851" gradientUnits="userSpaceOnUse">
<stop offset="0.276972"/>
</linearGradient>
<radialGradient id="paint13_angular_1226_38" cx="0" cy="0" r="1" gradientUnits="userSpaceOnUse" gradientTransform="translate(332.572 124.97) rotate(111.122) scale(1.81143 1.81584)">
<stop offset="0.225859" stop-color="#A4FFEC"/>
<stop offset="0.323726" stop-color="#64EEFA"/>
<stop offset="0.46638" stop-color="#3DBDFF"/>
<stop offset="0.732046" stop-color="#1677C5"/>
<stop offset="1" stop-color="#124CA2"/>
</radialGradient>
<linearGradient id="paint14_linear_1226_38" x1="331.005" y1="124.051" x2="330.891" y2="124.373" gradientUnits="userSpaceOnUse">
<stop stop-color="#A4FFEC"/>
<stop offset="0.143457" stop-color="#64EEFA"/>
<stop offset="0.315336" stop-color="#3DBDFF"/>
<stop offset="0.669509" stop-color="#1677C5"/>
<stop offset="0.778886" stop-color="#124CA2"/>
<stop offset="0.976806" stop-color="#111E80"/>
</linearGradient>
<linearGradient id="paint15_linear_1226_38" x1="330.755" y1="123.99" x2="330.65" y2="124.288" gradientUnits="userSpaceOnUse">
<stop stop-color="#A4FFEC"/>
<stop offset="0.143457" stop-color="#64EEFA"/>
<stop offset="0.315336" stop-color="#3DBDFF"/>
<stop offset="0.669509" stop-color="#1677C5"/>
<stop offset="0.778886" stop-color="#124CA2"/>
<stop offset="0.976806" stop-color="#111E80"/>
</linearGradient>
<linearGradient id="paint16_linear_1226_38" x1="330.513" y1="123.926" x2="330.414" y2="124.206" gradientUnits="userSpaceOnUse">
<stop stop-color="#A4FFEC"/>
<stop offset="0.143457" stop-color="#64EEFA"/>
<stop offset="0.315336" stop-color="#3DBDFF"/>
<stop offset="0.669509" stop-color="#1677C5"/>
<stop offset="0.778886" stop-color="#124CA2"/>
<stop offset="0.976806" stop-color="#111E80"/>
</linearGradient>
<linearGradient id="paint17_linear_1226_38" x1="329.313" y1="123.933" x2="332.964" y2="126.037" gradientUnits="userSpaceOnUse">
<stop offset="0.276972"/>
</linearGradient>
<linearGradient id="paint18_linear_1226_38" x1="149.439" y1="39.4722" x2="149.439" y2="67.2768" gradientUnits="userSpaceOnUse">
<stop stop-color="#A4FFEC"/>
<stop offset="0.143457" stop-color="#64EEFA"/>
<stop offset="0.315336" stop-color="#3DBDFF"/>
<stop offset="0.669509" stop-color="#1677C5"/>
<stop offset="0.778886" stop-color="#124CA2"/>
<stop offset="0.976806" stop-color="#111E80"/>
</linearGradient>
<linearGradient id="paint19_linear_1226_38" x1="128.519" y1="41.5334" x2="128.519" y2="67.2769" gradientUnits="userSpaceOnUse">
<stop stop-color="#A4FFEC"/>
<stop offset="0.143457" stop-color="#64EEFA"/>
<stop offset="0.315336" stop-color="#3DBDFF"/>
<stop offset="0.669509" stop-color="#1677C5"/>
<stop offset="0.778886" stop-color="#124CA2"/>
<stop offset="0.976806" stop-color="#111E80"/>
</linearGradient>
<linearGradient id="paint20_linear_1226_38" x1="108.15" y1="43.1738" x2="108.15" y2="67.2768" gradientUnits="userSpaceOnUse">
<stop stop-color="#A4FFEC"/>
<stop offset="0.143457" stop-color="#64EEFA"/>
<stop offset="0.315336" stop-color="#3DBDFF"/>
<stop offset="0.669509" stop-color="#1677C5"/>
<stop offset="0.778886" stop-color="#124CA2"/>
<stop offset="0.976806" stop-color="#111E80"/>
</linearGradient>
<clipPath id="clip0_1226_38">
<rect width="51.3999" height="51.2732" fill="white" transform="matrix(0.986437 0.164139 -0.164974 0.986298 281.5 83.9575)"/>
</clipPath>
<clipPath id="clip1_1226_38">
<rect width="5.28729" height="5.28729" fill="white" transform="matrix(0.943263 0.331613 -0.33246 0.94327 329.524 121.579)"/>
</clipPath>
</defs>
</svg>
