<svg width="989" height="225" viewBox="0 0 989 225" fill="none" xmlns="http://www.w3.org/2000/svg">
<path d="M48 178C55.3922 185.392 64 178 64 178C64 178 56.3614 187.676 64 194C53.9959 184.768 48 194 48 194C48 194 55.4743 185.474 48 178Z" fill="#3EC70B"/>
<path d="M0 199C12.0123 211.012 26 199 26 199C26 199 13.5873 214.723 26 225C9.74334 209.998 0 225 0 225C0 225 12.1458 211.146 0 199Z" fill="#3EC70B"/>
<path d="M806.304 15.3535C821.915 16.7772 824.739 -0.000336561 824.739 -0.000336561C824.739 -0.000336561 825.223 18.4781 840.093 18.435C819.707 17.3979 821.658 33.7889 821.658 33.7889C821.658 33.7889 822.088 16.793 806.304 15.3535Z" fill="#FEB139"/>
<path d="M899 69.2695C921.642 71.3345 925.739 47.0001 925.739 47.0001C925.739 47.0001 926.44 73.8014 948.008 73.739C918.44 72.2347 921.269 96.0084 921.269 96.0084C921.269 96.0084 921.894 71.3574 899 69.2695Z" fill="#FFEC3F"/>
<path d="M197 61.001C209.202 62.1138 211.41 48.9996 211.41 48.9996C211.41 48.9996 211.788 63.4433 223.411 63.4096C207.477 62.5989 209.001 75.411 209.001 75.411C209.001 75.411 209.338 62.1262 197 61.001Z" fill="#D61C4E"/>
<path d="M947.633 109.754C966.474 111.472 969.882 91.2234 969.882 91.2234C969.882 91.2234 970.466 113.525 988.413 113.473C963.809 112.221 966.163 132.003 966.163 132.003C966.163 132.003 966.683 111.491 947.633 109.754Z" fill="#209BFF"/>
<path d="M439.95 68.2139C447.243 68.8789 448.562 61.0415 448.562 61.0415C448.562 61.0415 448.788 69.6735 455.734 69.6534C446.211 69.1689 447.123 76.8257 447.123 76.8257C447.123 76.8257 447.324 68.8863 439.95 68.2139Z" fill="#293462"/>
<path d="M81 157C85.6201 161.62 91 157 91 157C91 157 86.2259 163.047 91 167C84.7474 161.23 81 167 81 167C81 167 85.6715 161.671 81 157Z" fill="#3EC70B"/>
</svg>
