<svg width="2000" height="1000" viewBox="0 0 2000 1000" fill="none" xmlns="http://www.w3.org/2000/svg">
<path d="M1241.49 406.567C1234.77 385.615 1223.5 361.895 1206.31 344.699C1194.05 332.444 1178.63 323.746 1159.66 321.77C1088.5 314.852 973.461 327.897 973.461 327.897C973.461 327.897 973.659 719.665 973.461 732.118C1017.14 732.315 1039.48 727.769 1039.48 727.769V570.627H1126.45C1144.24 570.627 1160.85 567.662 1175.87 561.93C1175.87 561.93 1176.07 561.93 1176.26 561.732C1191.48 555.803 1204.53 547.501 1215.6 536.629C1218.56 533.664 1221.33 530.699 1223.9 527.537C1223.7 522.793 1223.5 517.851 1223.5 513.107C1223.5 475.749 1229.83 439.972 1241.49 406.567ZM1170.53 497.294C1167.17 501.841 1162.82 505.003 1157.68 506.189C1120.72 514.096 1039.48 513.898 1039.48 513.898C1039.48 513.898 1038.69 437.798 1039.28 381.662C1133.17 375.139 1133.17 375.139 1149.78 378.499C1164.21 381.464 1174.29 400.637 1178.83 423.171C1173.69 446.89 1170.73 471.796 1170.53 497.294Z" fill="black"/>
<path d="M1867.1 513.107C1867.1 620.043 1814.91 714.723 1734.86 773.232C1676.94 811.578 1605.59 833.123 1527.91 833.123C1520.79 833.123 1513.87 832.926 1506.95 832.53C1352.18 813.95 1231.02 685.667 1224.1 527.537C1223.9 522.793 1223.7 517.851 1223.7 513.107C1223.7 475.749 1230.03 439.972 1241.89 406.567C1284.98 283.621 1400.81 194.673 1537.79 191.51C1567.83 192.103 1597.09 195.463 1624.76 201.196C1763.92 236.38 1867.1 362.686 1867.1 513.107Z" fill="black"/>
<path d="M1810.79 512.969C1810.79 601.186 1767.74 679.293 1701.7 727.56C1653.92 759.195 1595.05 776.968 1530.97 776.968C1525.1 776.968 1519.39 776.805 1513.69 776.479C1386.01 761.151 1286.05 655.323 1280.34 524.872C1280.18 520.959 1280.02 516.882 1280.02 512.969C1280.02 482.15 1285.23 452.635 1295.02 425.078C1330.57 323.652 1426.12 250.274 1539.12 247.665C1563.91 248.154 1588.04 250.926 1610.87 255.655C1725.67 284.68 1810.79 388.878 1810.79 512.969Z" fill="#FFE812"/>
<path d="M1604.01 714.13L1440.34 688.236C1432.63 687.05 1420.18 691.135 1421.37 683.624L1484.03 322.56C1485.21 314.851 1492.53 309.712 1500.04 310.898L1663.5 336.792C1671.21 337.978 1676.35 345.292 1675.17 352.803L1619.82 702.271C1618.83 710.177 1611.52 715.316 1604.01 714.13Z" fill="black"/>
<path d="M1598.64 701.459L1442.45 677.873C1435.09 676.793 1430.19 670.131 1431.32 663.29L1486.2 344.699C1487.33 337.677 1494.31 332.996 1501.48 334.077L1655.42 357.76C1662.78 358.84 1667.68 365.501 1666.55 372.343L1613.73 690.656C1612.79 697.858 1605.81 702.539 1598.64 701.459Z" fill="white"/>
<path d="M1596.7 341.432L1570.15 337.207C1568.4 336.968 1567.2 335.294 1567.52 333.54C1567.76 331.786 1569.43 330.59 1571.19 330.909L1597.73 335.134C1599.49 335.373 1600.68 337.048 1600.36 338.801C1600.05 340.555 1598.37 341.672 1596.7 341.432Z" fill="white"/>
<path d="M1537.14 672.433C1536.02 679.143 1529.87 683.616 1523.16 682.638C1516.45 681.519 1511.98 675.368 1512.95 668.658C1514.07 661.948 1520.22 657.475 1526.93 658.454C1533.64 659.432 1538.26 665.723 1537.14 672.433Z" fill="black"/>
<path d="M1567.25 493.528C1567.02 491.929 1566.49 490.074 1565.45 488.62C1564.71 487.584 1563.7 486.768 1562.35 486.395C1557.28 485.034 1548.78 484.589 1548.78 484.589C1548.78 484.589 1544.06 512.976 1543.9 513.876C1547.06 514.418 1548.73 514.359 1548.73 514.359L1550.63 502.973L1556.94 504.025C1558.22 504.24 1559.46 504.225 1560.62 503.992C1560.62 503.992 1560.63 503.994 1560.65 503.982C1561.83 503.736 1562.87 503.293 1563.8 502.639C1564.06 502.46 1564.29 502.278 1564.52 502.08C1564.56 501.734 1564.6 501.374 1564.66 501.03C1565.11 498.323 1566 495.808 1567.25 493.528ZM1561.02 499.244C1560.72 499.533 1560.36 499.709 1559.98 499.733C1557.2 499.859 1551.32 498.863 1551.32 498.863C1551.32 498.863 1552.18 493.34 1552.9 489.28C1559.78 489.942 1559.78 489.942 1560.95 490.386C1561.96 490.775 1562.46 492.286 1562.51 493.974C1561.85 495.63 1561.34 497.399 1561.02 499.244Z" fill="black"/>
<path d="M1612.75 508.082C1610.53 521.401 1597.93 530.412 1584.6 528.188C1571.28 525.966 1562.27 513.363 1564.49 500.03C1566.71 486.711 1579.32 477.7 1592.65 479.925C1605.97 482.147 1614.98 494.749 1612.75 508.082Z" fill="white"/>
<path d="M1611.3 508.81C1610 516.558 1605.08 522.787 1598.57 526.058C1593.91 528.137 1588.48 528.835 1582.85 527.896C1582.34 527.81 1581.84 527.712 1581.34 527.6C1570.35 524.383 1563.12 513.624 1564.53 502.083C1564.58 501.737 1564.62 501.377 1564.68 501.033C1565.13 498.326 1566.02 495.811 1567.28 493.534C1571.89 485.147 1581.36 480.102 1591.32 481.529C1593.49 481.935 1595.57 482.532 1597.51 483.282C1607.16 487.513 1613.11 497.911 1611.3 508.81Z" fill="black"/>
<path d="M1607.22 508.119C1606.15 514.511 1602.09 519.65 1596.72 522.349C1592.87 524.063 1588.39 524.639 1583.75 523.865C1583.33 523.794 1582.91 523.713 1582.5 523.62C1573.44 520.966 1567.48 512.091 1568.64 502.57C1568.68 502.285 1568.71 501.987 1568.76 501.704C1569.13 499.471 1569.87 497.395 1570.91 495.517C1574.71 488.598 1582.52 484.436 1590.74 485.613C1592.53 485.948 1594.24 486.441 1595.84 487.06C1603.81 490.55 1608.72 499.128 1607.22 508.119Z" fill="url(#paint0_angular_1281_354)"/>
<path d="M1589.8 520.194L1578.26 516.34C1577.71 516.161 1577.43 515.569 1577.61 515.039L1585.84 490.373C1586.02 489.829 1586.61 489.545 1587.14 489.722L1598.67 493.574C1599.22 493.753 1599.5 494.345 1599.33 494.875L1591.09 519.526C1590.92 520.087 1590.33 520.371 1589.8 520.194Z" fill="black"/>
<path d="M1589.71 519.235L1578.68 515.638C1578.16 515.471 1577.88 514.929 1578.05 514.447L1585.73 492.01C1585.89 491.515 1586.46 491.26 1586.96 491.425L1597.98 495.019C1598.5 495.187 1598.77 495.728 1598.61 496.21L1590.93 518.635C1590.78 519.145 1590.22 519.4 1589.71 519.235Z" fill="white"/>
<path d="M1593.78 493.102L1591.9 492.475C1591.78 492.437 1591.71 492.301 1591.76 492.178C1591.8 492.054 1591.93 491.987 1592.06 492.031L1593.93 492.659C1594.05 492.697 1594.12 492.833 1594.07 492.956C1594.03 493.079 1593.9 493.14 1593.78 493.102Z" fill="white"/>
<path d="M1585.81 516.482C1585.59 517.15 1584.88 517.504 1584.21 517.289C1583.54 517.059 1583.19 516.353 1583.4 515.682C1583.63 515.014 1584.34 514.661 1585.01 514.876C1585.68 515.091 1586.04 515.814 1585.81 516.482Z" fill="black"/>
<path d="M1581.33 502.221L1577.19 514.631C1576.96 515.313 1577.33 516.053 1578.02 516.285L1581.57 517.467L1581.37 504.851L1582.16 503.244L1581.33 502.221Z" fill="white"/>
<path d="M1581.33 502.221C1580.95 503.746 1580.5 505.262 1580.05 506.761C1579.82 507.518 1579.57 508.258 1579.35 509.014L1578.62 511.263L1577.86 513.492L1577.47 514.604C1577.44 514.702 1577.41 514.771 1577.4 514.857C1577.39 514.929 1577.37 515.015 1577.38 515.089C1577.38 515.251 1577.41 515.404 1577.49 515.564C1577.57 515.709 1577.66 515.843 1577.81 515.941C1577.94 516.036 1578.09 516.091 1578.28 516.168L1579.39 516.588C1580.12 516.872 1580.86 517.156 1581.59 517.469C1580.82 517.283 1580.06 517.068 1579.3 516.853L1578.17 516.516C1577.98 516.471 1577.76 516.404 1577.58 516.27C1577.39 516.151 1577.23 515.977 1577.11 515.767C1577 515.556 1576.92 515.337 1576.91 515.115C1576.9 514.996 1576.91 514.879 1576.93 514.764C1576.95 514.649 1576.98 514.537 1577.01 514.439L1577.36 513.306L1578.09 511.057L1578.86 508.83C1579.13 508.095 1579.37 507.341 1579.66 506.608C1580.17 505.147 1580.72 503.68 1581.33 502.221Z" fill="black"/>
<path d="M1587.11 519.466L1577.92 516.402C1577.39 516.225 1577.11 515.648 1577.28 515.118L1580.63 505.093C1580.63 505.093 1583.32 502.215 1582.49 499.529C1581.41 497.436 1580.43 498.846 1580.43 498.846C1580.43 498.846 1577.9 502.768 1576.77 503.477C1575.62 504.183 1573.76 507.376 1573 511.267C1572.23 515.158 1569.99 516.406 1569.53 516.786C1569.88 517.168 1577.86 525.313 1577.86 525.313C1577.86 525.313 1580.43 523.105 1581.04 523.031C1581.66 522.972 1586.34 521.294 1587.11 519.466Z" fill="url(#paint1_linear_1281_354)"/>
<path d="M1591.79 517.445C1591.41 517.484 1591.05 517.466 1590.69 517.304C1590.51 517.23 1590.34 517.113 1590.2 516.957C1590.13 516.872 1590.08 516.789 1590.02 516.705C1589.96 516.622 1589.91 516.525 1589.87 516.415C1589.78 516.195 1589.76 515.956 1589.83 515.717C1589.88 515.475 1590.01 515.276 1590.15 515.123C1590.45 514.806 1590.83 514.633 1591.2 514.547C1590.84 514.663 1590.46 514.836 1590.18 515.158C1590.05 515.326 1589.93 515.513 1589.88 515.741C1589.83 515.954 1589.85 516.192 1589.93 516.382C1590.01 516.571 1590.13 516.725 1590.26 516.879C1590.39 517.018 1590.56 517.119 1590.73 517.177C1591.07 517.308 1591.48 517.297 1591.85 517.257L1591.79 517.445Z" fill="black"/>
<path d="M1593.07 513.61C1592.96 513.592 1593.03 513.608 1592.9 513.601C1592.76 513.594 1592.65 513.589 1592.52 513.567C1592.28 513.512 1592.03 513.412 1591.83 513.247C1591.64 513.097 1591.48 512.894 1591.37 512.655C1591.26 512.416 1591.23 512.175 1591.21 511.936C1591.16 511.442 1591.33 510.941 1591.66 510.569C1591.99 510.196 1592.44 509.963 1592.92 509.911C1592.44 509.977 1592 510.227 1591.69 510.588C1591.39 510.95 1591.24 511.44 1591.29 511.905C1591.32 512.146 1591.36 512.373 1591.46 512.581C1591.56 512.789 1591.72 512.963 1591.9 513.111C1592.09 513.245 1592.31 513.34 1592.54 513.379C1592.65 513.398 1592.77 513.403 1592.87 513.405C1592.98 513.393 1593.03 513.384 1593.15 513.36L1593.07 513.61Z" fill="black"/>
<path d="M1594.52 509.279L1594.09 509.311C1594.02 509.313 1593.95 509.316 1593.86 509.317C1593.8 509.306 1593.73 509.308 1593.64 509.309C1593.35 509.276 1593.07 509.199 1592.81 509.067C1592.29 508.819 1591.83 508.359 1591.69 507.762C1591.63 507.472 1591.58 507.169 1591.63 506.869C1591.68 506.568 1591.81 506.295 1592 506.063C1592.39 505.597 1592.96 505.369 1593.52 505.315C1592.96 505.369 1592.4 505.628 1592.04 506.084C1591.86 506.304 1591.74 506.577 1591.7 506.866C1591.65 507.152 1591.72 507.443 1591.78 507.719C1591.93 508.273 1592.38 508.701 1592.87 508.931C1593.12 509.046 1593.39 509.106 1593.67 509.137C1593.74 509.149 1593.81 509.146 1593.88 509.143L1594.09 509.134L1594.57 509.101L1594.52 509.279Z" fill="black"/>
<path d="M1596.06 503.889L1595.8 503.914C1595.76 503.916 1595.71 503.919 1595.66 503.92C1595.62 503.913 1595.58 503.916 1595.53 503.917C1595.35 503.898 1595.19 503.85 1595.03 503.766C1594.72 503.608 1594.45 503.312 1594.37 502.923C1594.34 502.734 1594.31 502.536 1594.34 502.339C1594.38 502.142 1594.46 501.963 1594.57 501.809C1594.81 501.501 1595.16 501.346 1595.49 501.306C1595.16 501.346 1594.82 501.521 1594.6 501.822C1594.49 501.968 1594.41 502.148 1594.38 502.337C1594.35 502.525 1594.39 502.714 1594.43 502.894C1594.51 503.255 1594.78 503.531 1595.07 503.677C1595.22 503.75 1595.38 503.786 1595.55 503.804C1595.59 503.811 1595.63 503.809 1595.67 503.806L1595.8 503.798L1596.09 503.772L1596.06 503.889Z" fill="black"/>
<path d="M1593.63 517.006L1591.86 517.239C1591.13 517.34 1590.47 516.831 1590.37 516.108L1590.35 515.943C1590.25 515.22 1590.76 514.554 1591.48 514.454L1593.26 514.22C1593.98 514.12 1594.65 514.629 1594.75 515.352L1594.76 515.517C1594.88 516.242 1594.37 516.908 1593.63 517.006Z" fill="#97532D"/>
<path d="M1597.6 508.719L1594.58 509.127C1593.84 509.225 1593.17 508.716 1593.08 507.978L1592.97 507.27C1592.87 506.487 1593.42 505.754 1594.2 505.649L1597.33 505.229C1597.75 505.225 1598.42 505.086 1598.78 506.545C1599.15 508.462 1598.07 508.65 1597.6 508.719Z" fill="#97532D"/>
<path d="M1597 504.949L1594.64 505.231C1594.07 505.299 1593.45 505.032 1593.37 504.484L1593.29 503.958C1593.2 503.376 1593.93 503.053 1594.54 502.981L1596.98 502.69C1597.3 502.689 1598.28 502.372 1598.57 503.456C1598.87 504.881 1597.36 504.901 1597 504.949Z" fill="#97532D"/>
<path d="M1596.23 513.009L1593.21 513.345C1592.48 513.428 1591.81 512.948 1591.7 512.268L1591.59 511.616C1591.47 510.891 1592.01 510.23 1592.79 510.139L1595.91 509.791C1596.32 509.801 1596.99 509.677 1597.37 511.021C1597.76 512.808 1596.69 512.954 1596.23 513.009Z" fill="#97532D"/>
<path d="M1580.47 505.404C1580.83 505.022 1581.15 504.59 1581.44 504.153C1581.74 503.702 1581.99 503.244 1582.19 502.747C1582.39 502.251 1582.55 501.747 1582.61 501.213C1582.64 500.952 1582.64 500.673 1582.62 500.42C1582.61 500.153 1582.55 499.893 1582.49 499.632L1582.33 499.341L1582.49 499.632C1582.56 499.895 1582.62 500.155 1582.65 500.425C1582.68 500.695 1582.68 500.96 1582.65 501.234C1582.6 501.771 1582.46 502.291 1582.27 502.805C1582.08 503.303 1581.83 503.79 1581.54 504.244C1581.26 504.697 1580.95 505.146 1580.59 505.557L1580.47 505.404Z" fill="black"/>
<path d="M1538.47 484.134C1539.56 484.198 1540.66 484.248 1541.72 484.308L1538.47 484.134Z" fill="black"/>
<path d="M1544.73 493.172L1544.72 492.979L1544.4 487.832L1544.24 485.068L1544.21 484.4L1543.77 484.385L1543.74 484.144L1544.47 484.135L1544.48 484.474L1544.49 485.08L1544.73 493.172Z" fill="black"/>
<path d="M1531.92 483.689C1533.02 483.77 1534.13 483.851 1535.21 483.928L1531.92 483.689Z" fill="black"/>
<path d="M1525.3 483.1C1526.42 483.213 1527.52 483.308 1528.61 483.416L1525.3 483.1Z" fill="black"/>
<path d="M1528.6 483.4C1529.71 483.498 1530.82 483.593 1531.92 483.675L1528.6 483.4Z" fill="white"/>
<path d="M1535.2 483.928C1536.31 484.009 1537.39 484.071 1538.47 484.134L1535.2 483.928Z" fill="white"/>
<path d="M1527.5 496.258C1527.21 496.21 1526.98 496.01 1526.79 495.714C1526.29 494.895 1526.11 493.274 1526.41 491.484C1526.4 491.541 1526.39 491.584 1526.38 491.641C1525.94 494.04 1524.82 495.811 1523.83 495.646C1523.77 495.637 1523.73 495.615 1523.67 495.606C1523.67 495.606 1521.71 507.392 1521.62 507.834C1524.09 510.41 1540.99 513.229 1540.99 513.229C1541.05 512.945 1541.85 508.618 1541.92 507.923C1541.92 507.923 1529.82 506.611 1527.13 504.176L1528.39 496.864C1528.4 496.733 1528.43 496.59 1528.46 496.463C1528.47 496.421 1528.48 496.378 1528.47 496.347C1528.45 496.167 1528.48 495.996 1528.53 495.812C1528.18 496.151 1527.82 496.313 1527.5 496.258Z" fill="black"/>
<path d="M1538.47 484.134L1537.48 492.699L1537.41 493.305L1537.44 493.31L1541.07 493.916L1541.08 493.902L1541.14 492.735L1541.47 487.639L1541.5 487.644L1541.72 484.295C1540.66 484.249 1539.56 484.185 1538.47 484.134Z" fill="url(#paint2_linear_1281_354)"/>
<path d="M1529.19 491.933L1526.42 491.472L1526.41 491.469L1526.41 491.484L1529.19 491.933Z" fill="black"/>
<path opacity="0.4" d="M1529.19 491.933L1526.42 491.472L1526.41 491.469L1526.41 491.484L1529.19 491.933Z" fill="black"/>
<path d="M1526.38 491.641C1526.39 491.584 1526.4 491.541 1526.41 491.484L1526.41 491.469L1524.42 491.137L1522.74 490.858C1522.36 493.135 1522.74 495.111 1523.58 495.56C1523.61 495.579 1523.65 495.586 1523.67 495.605C1523.73 495.629 1523.77 495.636 1523.83 495.646C1524.82 495.811 1525.94 494.04 1526.38 491.641Z" fill="#092140"/>
<path d="M1529.19 491.933L1526.41 491.484C1526.11 493.274 1526.3 494.894 1526.79 495.713C1526.98 496.009 1527.21 496.21 1527.5 496.258C1527.82 496.313 1528.18 496.15 1528.51 495.809C1529.17 495.153 1529.75 493.838 1530.05 492.253C1530.06 492.195 1530.07 492.138 1530.08 492.081L1529.19 491.933Z" fill="#DADADA"/>
<path d="M1530.08 492.081C1530.07 492.138 1530.06 492.195 1530.05 492.253C1529.89 493.403 1529.9 494.48 1530.08 495.306C1530.27 496.191 1530.65 496.783 1531.16 496.869C1532.15 497.034 1533.27 495.263 1533.71 492.864C1533.72 492.807 1533.73 492.75 1533.74 492.693L1530.08 492.081V492.081Z" fill="#092140"/>
<path d="M1533.72 492.864C1533.36 495.263 1533.84 497.316 1534.83 497.481C1535.35 497.567 1535.89 497.128 1536.36 496.352C1536.8 495.646 1537.17 494.634 1537.38 493.476C1537.39 493.419 1537.4 493.361 1537.41 493.304L1533.74 492.693C1533.73 492.75 1533.73 492.807 1533.72 492.864Z" fill="#DADADA"/>
<path d="M1537.41 493.466C1537.37 493.724 1537.34 493.97 1537.32 494.202C1537.27 494.636 1537.27 495.032 1537.29 495.419L1537.29 495.433C1537.3 495.832 1537.35 496.195 1537.42 496.514C1537.47 496.758 1537.53 496.975 1537.6 497.164C1537.81 497.698 1538.12 498.03 1538.49 498.092C1538.77 498.138 1539.06 498.026 1539.34 497.792C1539.44 497.72 1539.54 497.62 1539.64 497.503C1539.71 497.412 1539.79 497.307 1539.86 497.202C1540.27 496.622 1540.63 495.785 1540.88 494.811C1540.96 494.515 1541.02 494.231 1541.08 493.916L1537.44 493.309C1537.43 493.366 1537.42 493.409 1537.41 493.466Z" fill="#092140"/>
<path d="M1541.69 498.449C1541.84 498.592 1542 498.678 1542.18 498.707C1542.26 498.721 1542.35 498.721 1542.44 498.707C1543.38 498.554 1544.38 496.793 1544.76 494.53L1541.09 493.933C1540.75 495.966 1541.02 497.778 1541.69 498.449Z" fill="#DADADA"/>
<path d="M1530.08 492.081L1533.74 492.693L1535.21 483.928C1534.13 483.851 1533.02 483.77 1531.92 483.689L1530.21 491.484L1530.08 492.081Z" fill="url(#paint3_linear_1281_354)"/>
<path d="M1522.76 490.86L1524.42 491.138L1526.41 491.47L1526.72 490.329L1528.6 483.4C1527.51 483.306 1526.41 483.196 1525.29 483.084L1523.29 489.211C1523.1 489.724 1522.93 490.257 1522.76 490.86Z" fill="url(#paint4_linear_1281_354)"/>
<path d="M1529.19 491.933L1530.08 492.081L1530.21 491.485L1531.92 483.689C1530.83 483.61 1529.72 483.515 1528.59 483.414L1526.72 490.343L1526.41 491.484L1526.42 491.486L1529.19 491.948L1529.19 491.933Z" fill="white"/>
<path d="M1538.47 484.134C1537.39 484.071 1536.31 484.009 1535.2 483.928L1533.74 492.693L1537.41 493.304L1537.48 492.698L1538.47 484.134Z" fill="white"/>
<path d="M1544.76 494.53L1541.09 493.918L1541.17 492.739L1541.5 487.643L1541.72 484.294C1542.43 484.323 1543.13 484.352 1543.81 484.378C1543.86 484.385 1543.9 484.378 1543.93 484.383C1544.02 484.383 1544.11 484.383 1544.21 484.4L1544.37 487.164L1544.68 492.31L1544.7 492.503L1544.69 492.518L1544.69 492.532L1544.8 494.286C1544.77 494.356 1544.77 494.444 1544.76 494.53Z" fill="white"/>
<path d="M1573.83 520.641C1560.85 520.42 1553.63 519.681 1544.35 518.839C1496.36 514.439 1493.46 503.342 1493.26 502.852C1493.26 502.838 1493.93 502.876 1493.94 502.862C1495.14 502.812 1495 501.258 1494.95 500.676C1493.6 490.574 1492.17 485.891 1492.15 485.798C1492.04 485.043 1491.82 484.506 1491.49 484.232C1491.16 483.955 1490.57 483.754 1489.69 483.666L1489.26 483.623C1489.23 483.618 1489.21 483.601 1489.22 483.572L1489.32 482.646L1497.46 482.901L1498.72 495.182C1498.73 495.227 1498.78 495.237 1498.81 495.196L1503.22 487.468C1503.74 486.554 1504.69 485.962 1505.74 485.917C1506.6 485.869 1507.46 485.836 1507.46 485.836C1507.48 485.838 1507.49 485.855 1507.5 485.872L1509.67 496.346C1509.68 496.391 1509.73 496.401 1509.76 496.36L1513.9 483.421L1521.79 483.678L1521.45 486.948C1521.45 486.977 1521.43 486.989 1521.4 486.984L1520.93 486.934C1520.06 486.847 1519.43 486.905 1519.04 487.119C1518.65 487.334 1518.34 487.812 1518.1 488.523L1512.25 503.915C1512.17 504.137 1512 504.493 1511.53 504.767C1511.37 504.858 1511.19 504.872 1511.02 504.829L1507.41 503.888C1505.12 496.073 1504.64 494.712 1504.64 494.712C1504.63 494.622 1503.3 493.562 1500.06 501.204C1499.84 501.727 1499.43 502.424 1499.18 503.178C1498.4 504.593 1507.26 512.99 1544.55 517.576C1553.73 518.711 1560.88 519.732 1573.79 520.238C1573.86 520.279 1573.89 520.637 1573.83 520.641Z" fill="url(#paint5_linear_1281_354)"/>
<path d="M1449.15 491.76L1452.17 648.772C1450.63 657.979 1430.77 670.047 1440.15 671.55L1484.64 675.616L1457.37 525.314L1462.13 503.053L1449.15 491.76Z" fill="white"/>
<path d="M1450.03 491.76C1448.25 513.107 1445.68 534.455 1442.91 555.605C1441.53 566.279 1439.95 576.755 1438.56 587.429L1433.82 619.252L1428.68 650.878L1425.91 666.691C1425.72 668.075 1425.52 669.063 1425.52 670.249C1425.52 671.238 1425.52 672.424 1425.72 673.412C1426.11 675.586 1426.9 677.563 1428.29 679.54C1429.67 681.319 1431.25 682.9 1433.43 683.888C1435.4 684.876 1437.58 685.272 1440.34 685.865L1456.16 689.027C1466.63 691.202 1477.11 693.376 1487.59 695.946C1476.91 695.155 1466.24 693.969 1455.56 692.783L1439.55 690.806C1436.98 690.609 1433.82 690.213 1431.05 688.83C1428.29 687.644 1425.72 685.667 1423.74 683.097C1421.76 680.528 1420.18 677.761 1419.59 674.796C1419.19 673.214 1419 671.633 1419 670.052C1419 668.47 1419.19 666.889 1419.39 665.505L1421.57 649.495L1426.31 617.671L1431.65 586.045C1433.62 575.569 1435.2 564.895 1437.38 554.419C1440.94 533.664 1445.09 512.712 1450.03 491.76Z" fill="black"/>
<g filter="url(#filter0_d_1281_354)">
<path d="M1566.26 707.41L1434.81 687.644C1427.3 686.458 1423.35 681.516 1424.53 674.005L1447.07 531.885C1447.07 531.885 1476.71 487.214 1459.52 453.018C1440.35 427.322 1430.26 448.472 1430.26 448.472C1430.26 448.472 1405.16 506.782 1391.52 518.84C1377.69 530.897 1359.9 577.941 1358.31 631.903C1356.73 685.865 1323.42 705.511 1318.08 711.639C1323.62 715.987 1448.93 807.505 1448.93 807.505C1448.93 807.505 1484.62 774.22 1492.73 771.848C1500.83 769.674 1559.93 733.699 1566.26 707.41Z" fill="url(#paint6_linear_1281_354)"/>
<path d="M1318.82 711.576C1319.47 710.903 1320.41 710.072 1321.6 709.045C1321.84 708.839 1322.09 708.626 1322.35 708.405C1323.62 707.311 1325.11 706.033 1326.73 704.553C1330.65 700.993 1335.39 696.252 1340.01 690.006C1349.26 677.508 1358.02 659.009 1358.81 631.917C1359.6 604.985 1364.44 579.779 1370.8 559.809C1373.98 549.824 1377.54 541.154 1381.16 534.236C1384.79 527.309 1388.46 522.171 1391.85 519.217L1391.85 519.214C1395.33 516.143 1399.49 510.175 1403.76 503.014C1408.04 495.836 1412.46 487.404 1416.46 479.356C1420.45 471.307 1424.02 463.636 1426.58 457.978C1427.87 455.148 1428.9 452.822 1429.62 451.202C1429.97 450.393 1430.25 449.76 1430.44 449.329C1430.53 449.114 1430.6 448.949 1430.65 448.838L1430.71 448.712L1430.72 448.68L1430.72 448.68L1430.72 448.676L1430.74 448.636C1430.76 448.6 1430.79 448.545 1430.82 448.474C1430.9 448.332 1431.01 448.125 1431.16 447.868C1431.47 447.355 1431.93 446.648 1432.53 445.878C1433.75 444.332 1435.54 442.562 1437.9 441.569C1440.23 440.585 1443.14 440.35 1446.65 441.923C1450.18 443.503 1454.34 446.917 1459.09 453.282C1467.57 470.19 1464.51 489.726 1459.27 505.114C1456.65 512.803 1453.49 519.431 1450.99 524.136C1449.74 526.489 1448.65 528.359 1447.88 529.641C1447.49 530.282 1447.18 530.775 1446.97 531.107C1446.87 531.274 1446.79 531.4 1446.73 531.484C1446.7 531.526 1446.68 531.558 1446.67 531.578L1446.65 531.602L1446.65 531.607L1446.65 531.609C1446.65 531.609 1446.65 531.609 1447.07 531.885L1446.65 531.609L1446.59 531.7L1446.57 531.807L1424.04 673.927L1424.04 673.927C1423.43 677.786 1424.13 681.046 1426.01 683.5C1427.89 685.951 1430.89 687.531 1434.73 688.138L1434.74 688.138L1565.64 707.823C1563.96 714.126 1559.23 721.032 1552.87 727.925C1546.34 734.999 1538.13 742.008 1529.86 748.274C1521.58 754.538 1513.25 760.05 1506.49 764.131C1503.1 766.171 1500.11 767.852 1497.72 769.089C1495.32 770.333 1493.55 771.109 1492.6 771.365L1492.59 771.368C1491.5 771.687 1490 772.503 1488.24 773.642C1486.48 774.789 1484.41 776.293 1482.16 778.024C1477.66 781.487 1472.43 785.877 1467.46 790.188C1462.49 794.501 1457.78 798.738 1454.3 801.897C1452.56 803.477 1451.14 804.787 1450.15 805.703C1449.88 805.95 1449.64 806.168 1449.44 806.355C1449.27 806.515 1449.12 806.652 1449 806.764C1448.96 806.798 1448.93 806.829 1448.9 806.858L1448.87 806.839L1447.82 806.073L1443.83 803.16C1440.4 800.65 1435.48 797.058 1429.56 792.734C1417.73 784.086 1401.89 772.511 1385.88 760.799C1355.04 738.24 1323.58 715.19 1318.82 711.576Z" stroke="url(#paint7_linear_1281_354)"/>
</g>
<path d="M1648.29 662.738L1624.96 669.854C1615.47 672.819 1605.39 667.482 1602.43 657.994L1601.84 655.82C1598.87 646.332 1604.21 636.251 1613.69 633.286L1637.02 626.171C1646.51 623.206 1656.59 628.543 1659.55 638.03L1660.15 640.205C1663.31 649.692 1657.97 659.773 1648.29 662.738Z" fill="#894C29"/>
<path d="M1675.84 472.779L1649.03 480.747C1638.12 484.067 1626.53 478.091 1623.12 467.466L1622.44 465.031C1619.03 454.407 1625.17 443.118 1636.08 439.797L1662.89 431.829C1673.8 428.509 1685.39 434.485 1688.8 445.11L1689.48 447.545C1693.11 458.17 1686.98 469.458 1675.84 472.779Z" fill="#894C29"/>
<path d="M1637.53 553.923L1682.76 541.524C1689.73 539.525 1705.7 534.525 1695.13 509.329C1685.9 490.331 1676.01 493.731 1669.71 494.73L1622.91 507.529C1618.21 508.814 1614.34 511.39 1611.63 514.686L1617.97 518.636C1619.35 518.417 1622.45 517.032 1626.54 515.202C1641.13 508.676 1668.37 496.489 1675.57 511.325C1686.15 536.522 1670.17 541.522 1663.2 543.521L1625.25 553.926C1629.09 554.99 1633.34 555.062 1637.53 553.923Z" fill="#894C29"/>
<path d="M1608.28 532.326L1611.66 541.724C1613.75 547.803 1618.96 552.188 1625.25 553.926L1663.2 543.521C1670.17 541.522 1686.15 536.522 1675.57 511.325C1668.37 496.489 1641.13 508.676 1626.54 515.202C1622.45 517.032 1619.35 518.417 1617.97 518.636L1611.63 514.686C1607.6 519.596 1606.13 526.104 1608.28 532.326Z" fill="#894C29"/>
<path d="M1674.18 603.242L1634.45 614.508C1624.77 617.276 1614.68 612.334 1611.72 603.439L1608.75 594.94C1605.59 585.452 1611.32 575.371 1621.6 572.406L1662.72 560.744C1668.25 559.954 1676.95 556.791 1685.05 573.988C1694.34 597.114 1680.31 601.463 1674.18 603.242Z" fill="#894C29"/>
<path d="M1614.62 519.307L1614.62 519.305L1614.62 519.311C1612.64 523.429 1612.57 529.111 1613.99 534.234C1615.4 539.358 1618.31 543.927 1622.31 545.816L1622.31 545.817L1622.31 545.817C1629.3 545.724 1632.32 545.464 1634.92 544.857C1636.2 544.557 1637.38 544.173 1638.89 543.684L1638.95 543.665C1640.48 543.166 1642.35 542.559 1645.01 541.82L1645.01 541.821L1645.01 541.818C1651.73 535.712 1652.7 528.827 1650.73 523.268C1648.76 517.711 1643.85 513.48 1638.78 512.685C1635.97 512.244 1631.52 512.964 1626.98 514.262C1622.44 515.56 1617.8 517.436 1614.62 519.307Z" fill="url(#paint8_linear_1281_354)" stroke="black" stroke-width="0.02"/>
<path d="M1617.17 586.259L1617.17 586.257L1617.17 586.264C1615.57 590.188 1615.68 595.128 1617.16 599.454C1618.63 603.778 1621.47 607.49 1625.34 608.952L1625.34 608.953L1625.35 608.953C1631.91 608.385 1634.5 607.699 1636.67 606.724C1637.33 606.429 1637.95 606.107 1638.63 605.755C1640.2 604.942 1642.09 603.963 1645.5 602.76L1645.5 602.763L1645.51 602.755C1649.85 595.124 1649.12 589.357 1646.86 585.118C1644.94 581.531 1641.94 579.039 1640.01 577.439C1639.66 577.15 1639.35 576.889 1639.09 576.657L1639.09 576.655L1639.08 576.655C1637.75 576.549 1636.07 576.854 1634.21 577.431C1632.36 578.008 1630.32 578.858 1628.28 579.843C1624.18 581.812 1620.04 584.318 1617.17 586.259Z" fill="url(#paint9_linear_1281_354)" stroke="black" stroke-width="0.02"/>
<path d="M1607.98 646.543L1607.98 646.542L1607.98 646.548C1606.67 649.136 1606.3 652.56 1606.91 655.627C1607.51 658.693 1609.1 661.404 1611.72 662.563L1611.72 662.564L1611.72 662.564C1616.31 662.463 1618.86 662.138 1621.14 661.598C1622.27 661.328 1623.34 661.005 1624.56 660.63C1624.66 660.601 1624.75 660.571 1624.85 660.541C1626 660.187 1627.29 659.79 1628.9 659.349L1628.9 659.356L1628.91 659.343C1631.7 651.35 1630.97 647.311 1629.24 644.995C1628.38 643.838 1627.28 643.112 1626.24 642.537C1625.99 642.394 1625.73 642.26 1625.49 642.131L1625.49 642.13C1625.25 642.002 1625.01 641.878 1624.79 641.755C1624.35 641.509 1623.97 641.266 1623.69 640.992L1623.69 640.99L1623.69 640.989C1622.76 640.859 1621.58 640.993 1620.26 641.304C1618.95 641.615 1617.49 642.102 1616.02 642.68C1613.08 643.836 1610.07 645.354 1607.98 646.543Z" fill="url(#paint10_linear_1281_354)" stroke="black" stroke-width="0.02"/>
<path d="M1632.38 450.287L1632.38 450.285L1632.37 450.291C1630.39 453.657 1629.4 458.356 1629.65 462.736C1629.9 467.115 1631.38 471.178 1634.36 473.269L1634.35 473.27L1634.36 473.27C1639.91 473.967 1642.86 473.288 1645.52 472.261C1646.15 472.018 1646.76 471.756 1647.38 471.488C1649.4 470.622 1651.56 469.696 1654.89 469.164L1654.89 469.165L1654.89 469.163C1659.91 466.145 1662.42 460.607 1662.08 455.624C1661.91 453.133 1661.03 450.779 1659.4 448.95C1657.76 447.12 1655.37 445.814 1652.19 445.415C1651.09 445.067 1649.65 445.038 1648.01 445.23C1646.37 445.423 1644.54 445.836 1642.68 446.372C1638.95 447.445 1635.08 449.011 1632.38 450.287Z" fill="url(#paint11_linear_1281_354)" stroke="black" stroke-width="0.02"/>
<path d="M1447.78 531.232C1450.93 524.865 1452.83 523.98 1455.8 517.457C1458.76 510.737 1461.13 504.016 1462.72 496.9C1464.3 489.785 1465.29 482.669 1464.89 475.355C1464.69 471.797 1464.1 468.042 1463.31 464.681C1462.52 461.123 1461.13 457.763 1459.75 454.403C1461.33 457.763 1462.72 461.123 1463.7 464.681C1464.69 468.239 1465.29 471.797 1465.48 475.553C1466.08 482.866 1465.29 490.18 1463.9 497.493C1462.52 504.609 1460.15 511.725 1457.38 518.446C1454.61 525.166 1451.45 531.887 1447.5 538.212L1447.78 531.232Z" fill="black"/>
<path d="M833.914 344.896C848.739 343.315 863.563 341.536 877.993 339.955L833.914 344.896Z" fill="black"/>
<path d="M938.28 452.227L937.687 449.658L921.874 381.266L913.573 344.501L911.596 335.606L905.666 336.397L904.678 333.234L914.561 331.455L915.352 336.002L916.933 344.106L938.28 452.227Z" fill="black"/>
<path d="M744.967 353.594C759.989 352.21 775.012 350.826 789.639 349.443L744.967 353.594Z" fill="black"/>
<path d="M654.83 360.512C670.05 359.523 685.073 358.337 699.897 357.349L654.83 360.512Z" fill="black"/>
<path d="M699.701 357.152C714.921 355.966 729.944 354.78 744.966 353.396L699.701 357.152Z" fill="white"/>
<path d="M789.639 349.443C804.661 348.059 819.288 346.478 833.915 344.896L789.639 349.443Z" fill="white"/>
<path d="M713.737 532.281C709.784 532.281 706.226 530.106 703.063 526.549C694.564 516.665 688.436 495.318 688.436 470.61C688.436 471.401 688.436 471.994 688.436 472.784C687.843 505.992 676.774 532.281 663.136 532.281C662.345 532.281 661.752 532.083 660.961 532.083C660.961 532.083 660.961 694.76 660.764 700.887C699.703 729.943 932.945 729.944 932.945 729.944C933.143 725.99 934.131 666.098 933.538 656.611C933.538 656.611 768.095 666.098 726.585 639.414L727.178 538.408C726.981 536.629 726.981 534.653 727.178 532.874C727.178 532.281 727.178 531.688 726.981 531.292C726.388 528.92 726.388 526.549 726.585 523.979C722.632 529.316 718.284 532.281 713.737 532.281Z" fill="black"/>
<path d="M833.914 344.896L839.844 462.11L840.239 470.412H840.635H890.841V470.215L889.062 454.402L882.144 385.22H882.539L877.993 339.757C863.563 341.536 848.739 343.117 833.914 344.896Z" fill="url(#paint12_linear_1281_354)"/>
<path d="M726.782 470.412H688.633H688.436V470.61L726.782 470.412Z" fill="black"/>
<path opacity="0.4" d="M726.782 470.412H688.633H688.436V470.61L726.782 470.412Z" fill="black"/>
<path d="M688.434 472.784C688.434 471.994 688.434 471.401 688.434 470.61V470.412H660.959H637.832C637.832 501.841 647.32 527.537 659.575 531.688C659.97 531.885 660.563 531.885 660.959 532.083C661.749 532.281 662.342 532.281 663.133 532.281C676.772 532.281 687.841 505.992 688.434 472.784Z" fill="#092140"/>
<path d="M726.782 470.412L688.436 470.61C688.436 495.318 694.563 516.665 703.063 526.549C706.225 530.106 709.783 532.281 713.736 532.281C718.283 532.281 722.631 529.316 726.387 523.979C733.7 513.7 738.642 494.725 739.037 472.784C739.037 471.994 739.037 471.203 739.037 470.412H726.782Z" fill="#DADADA"/>
<path d="M739.035 470.412C739.035 471.203 739.035 471.994 739.035 472.784C739.43 488.597 742 503.027 746.349 513.7C750.895 525.165 757.22 532.281 764.336 532.281C777.975 532.281 789.044 505.992 789.637 472.784C789.637 471.994 789.637 471.203 789.637 470.412H739.035V470.412Z" fill="#092140"/>
<path d="M789.639 472.784C790.232 505.794 801.301 532.281 814.939 532.281C822.055 532.281 828.381 525.165 832.927 513.7C837.275 503.224 840.043 488.795 840.24 472.784C840.24 471.994 840.24 471.203 840.24 470.412H789.639C789.639 471.203 789.639 471.994 789.639 472.784Z" fill="#DADADA"/>
<path d="M840.633 472.587C840.633 476.145 840.83 479.505 841.028 482.667C841.423 488.597 842.214 493.934 843.4 499.073V499.271C844.388 504.608 845.97 509.352 847.551 513.503C848.737 516.665 850.121 519.433 851.504 521.805C855.458 528.525 860.399 532.281 865.538 532.281C869.294 532.281 873.049 530.106 876.212 526.351C877.398 525.165 878.584 523.584 879.572 521.805C880.363 520.421 881.154 518.84 881.944 517.258C886.095 508.561 889.06 496.504 890.246 482.865C890.641 478.714 890.839 474.761 890.839 470.412H840.633C840.633 471.203 840.633 471.796 840.633 472.587Z" fill="#092140"/>
<path d="M909.224 529.909C911.596 531.49 913.968 532.281 916.34 532.281C917.526 532.281 918.712 532.083 919.898 531.688C932.153 527.537 941.641 501.643 941.641 470.412L891.039 470.61C891.039 498.678 898.748 522.398 909.224 529.909Z" fill="#DADADA"/>
<path d="M739.035 470.412H789.637V349.443C775.01 350.826 759.987 352.21 744.965 353.594L739.431 462.11L739.035 470.412Z" fill="url(#paint13_linear_1281_354)"/>
<path d="M638.031 470.412H660.96H688.435L690.017 454.402L699.702 357.152C684.877 358.337 669.855 359.326 654.635 360.314L641.392 447.088C640.008 454.402 639.02 461.913 638.031 470.412Z" fill="url(#paint14_linear_1281_354)"/>
<path d="M726.782 470.412H739.037L739.433 462.11L744.967 353.594C730.142 354.977 715.12 356.163 699.702 357.349L690.017 454.599L688.436 470.61H688.633H726.782V470.412Z" fill="white"/>
<path d="M833.915 344.896C819.288 346.478 804.661 348.059 789.639 349.443V470.412H840.24L839.845 462.11L833.915 344.896Z" fill="white"/>
<path d="M941.642 470.412H891.04L889.459 454.402L882.54 385.22L877.994 339.757C887.482 338.571 896.97 337.385 906.26 336.199C906.853 336.199 907.446 336.002 907.841 336.002C909.027 335.804 910.213 335.606 911.597 335.606L919.899 372.372L935.712 440.763L936.305 443.332V443.53V443.728L941.642 467.052C941.444 468.04 941.642 469.226 941.642 470.412Z" fill="white"/>
<path d="M1384.98 755.52C1210.25 781.611 1061.61 798.017 935.103 807.505C280.839 855.933 216.994 713.418 213.238 707.29C213.238 707.092 222.331 706.104 222.331 705.906C238.342 702.546 233.005 681.989 231.028 674.28C190.31 541.649 160.66 481.955 160.067 480.769C156.904 470.885 152.754 464.165 147.812 461.2C142.673 458.235 134.371 456.851 122.314 457.642L116.384 458.037C115.988 458.037 115.791 457.84 115.791 457.444L115 444.794L224.9 429.969L269.375 592.053C269.572 592.646 270.363 592.646 270.561 592.053L312.465 478.397C317.407 464.956 328.871 454.875 342.905 451.91C354.37 449.34 365.834 446.968 365.834 446.968C366.032 446.968 366.229 447.166 366.427 447.364L419.005 583.158C419.203 583.751 419.994 583.751 420.191 583.158L446.876 400.122L553.416 385.891L556.183 430.562C556.183 430.958 555.986 431.155 555.59 431.155L549.067 431.551C537.208 432.341 528.906 434.516 524.162 438.271C519.418 442.027 516.255 449.143 514.674 459.223L470.595 679.024C470.002 682.187 468.619 687.326 462.886 692.07C460.91 693.651 458.538 694.244 456.166 694.047L405.564 689.5C357.335 589.681 347.847 572.484 347.847 572.484C347.451 571.298 327.29 560.031 300.803 669.932C299.024 677.443 295.071 687.722 293.489 698.395C286.176 719.15 423.947 812.051 934.905 790.111C1060.82 784.774 1209.06 772.321 1383.6 750.183C1384.59 750.578 1385.77 755.322 1384.98 755.52Z" fill="url(#paint15_linear_1281_354)"/>
<g filter="url(#filter1_d_1281_354)">
<circle cx="1754.84" cy="399.658" r="16.6442" transform="rotate(-16.9736 1754.84 399.658)" fill="white"/>
<circle cx="1702.98" cy="284.351" r="44.1477" transform="rotate(-16.9736 1702.98 284.351)" fill="white"/>
<circle cx="1754.84" cy="347.393" r="30.4586" transform="rotate(-16.9736 1754.84 347.393)" fill="white"/>
</g>
<defs>
<filter id="filter0_d_1281_354" x="1315.08" y="432.287" width="256.174" height="375.218" filterUnits="userSpaceOnUse" color-interpolation-filters="sRGB">
<feFlood flood-opacity="0" result="BackgroundImageFix"/>
<feColorMatrix in="SourceAlpha" type="matrix" values="0 0 0 0 0 0 0 0 0 0 0 0 0 0 0 0 0 0 127 0" result="hardAlpha"/>
<feOffset dx="1" dy="-4"/>
<feGaussianBlur stdDeviation="2"/>
<feComposite in2="hardAlpha" operator="out"/>
<feColorMatrix type="matrix" values="0 0 0 0 0 0 0 0 0 0 0 0 0 0 0 0 0 0 0.62 0"/>
<feBlend mode="normal" in2="BackgroundImageFix" result="effect1_dropShadow_1281_354"/>
<feBlend mode="normal" in="SourceGraphic" in2="effect1_dropShadow_1281_354" result="shape"/>
</filter>
<filter id="filter1_d_1281_354" x="1651.82" y="236.191" width="134.488" height="184.115" filterUnits="userSpaceOnUse" color-interpolation-filters="sRGB">
<feFlood flood-opacity="0" result="BackgroundImageFix"/>
<feColorMatrix in="SourceAlpha" type="matrix" values="0 0 0 0 0 0 0 0 0 0 0 0 0 0 0 0 0 0 127 0" result="hardAlpha"/>
<feOffset dx="-3"/>
<feGaussianBlur stdDeviation="2"/>
<feComposite in2="hardAlpha" operator="out"/>
<feColorMatrix type="matrix" values="0 0 0 0 0 0 0 0 0 0 0 0 0 0 0 0 0 0 0.39 0"/>
<feBlend mode="normal" in2="BackgroundImageFix" result="effect1_dropShadow_1281_354"/>
<feBlend mode="normal" in="SourceGraphic" in2="effect1_dropShadow_1281_354" result="shape"/>
</filter>
<radialGradient id="paint0_angular_1281_354" cx="0" cy="0" r="1" gradientUnits="userSpaceOnUse" gradientTransform="translate(1588.48 501.978) rotate(101.179) scale(50.9285 51.0697)">
<stop offset="0.225859" stop-color="#A4FFEC"/>
<stop offset="0.323726" stop-color="#64EEFA"/>
<stop offset="0.46638" stop-color="#3DBDFF"/>
<stop offset="0.732046" stop-color="#1677C5"/>
<stop offset="1" stop-color="#124CA2"/>
</radialGradient>
<linearGradient id="paint1_linear_1281_354" x1="1589.4" y1="502.378" x2="1568.19" y2="525.268" gradientUnits="userSpaceOnUse">
<stop offset="0.192778" stop-color="#B56335"/>
<stop offset="0.297841" stop-color="#99542D"/>
<stop offset="0.500677" stop-color="#7A4324"/>
<stop offset="0.601362" stop-color="#552E19"/>
<stop offset="0.764413"/>
</linearGradient>
<linearGradient id="paint2_linear_1281_354" x1="1540.59" y1="484.106" x2="1539.01" y2="493.572" gradientUnits="userSpaceOnUse">
<stop stop-color="#A4FFEC"/>
<stop offset="0.143457" stop-color="#64EEFA"/>
<stop offset="0.315336" stop-color="#3DBDFF"/>
<stop offset="0.669509" stop-color="#1677C5"/>
<stop offset="0.778886" stop-color="#124CA2"/>
<stop offset="0.976806" stop-color="#111E80"/>
</linearGradient>
<linearGradient id="paint3_linear_1281_354" x1="1533.37" y1="483.622" x2="1531.91" y2="492.387" gradientUnits="userSpaceOnUse">
<stop stop-color="#A4FFEC"/>
<stop offset="0.143457" stop-color="#64EEFA"/>
<stop offset="0.315336" stop-color="#3DBDFF"/>
<stop offset="0.669509" stop-color="#1677C5"/>
<stop offset="0.778886" stop-color="#124CA2"/>
<stop offset="0.976806" stop-color="#111E80"/>
</linearGradient>
<linearGradient id="paint4_linear_1281_354" x1="1526.36" y1="483.027" x2="1524.99" y2="491.233" gradientUnits="userSpaceOnUse">
<stop stop-color="#A4FFEC"/>
<stop offset="0.143457" stop-color="#64EEFA"/>
<stop offset="0.315336" stop-color="#3DBDFF"/>
<stop offset="0.669509" stop-color="#1677C5"/>
<stop offset="0.778886" stop-color="#124CA2"/>
<stop offset="0.976806" stop-color="#111E80"/>
</linearGradient>
<linearGradient id="paint5_linear_1281_354" x1="1493.2" y1="489.006" x2="1604.56" y2="529.59" gradientUnits="userSpaceOnUse">
<stop offset="0.276972"/>
</linearGradient>
<linearGradient id="paint6_linear_1281_354" x1="1558.56" y1="475.574" x2="1329.16" y2="834.912" gradientUnits="userSpaceOnUse">
<stop offset="0.192778" stop-color="#B56335"/>
<stop offset="0.297841" stop-color="#99542D"/>
<stop offset="0.500677" stop-color="#7A4324"/>
<stop offset="0.601362" stop-color="#552E19"/>
<stop offset="0.764413"/>
</linearGradient>
<linearGradient id="paint7_linear_1281_354" x1="1576.84" y1="485.725" x2="1329.16" y2="834.912" gradientUnits="userSpaceOnUse">
<stop offset="0.409849"/>
<stop offset="0.73094" stop-color="#010101"/>
</linearGradient>
<linearGradient id="paint8_linear_1281_354" x1="1613.43" y1="531.99" x2="1643.1" y2="528.203" gradientUnits="userSpaceOnUse">
<stop stop-color="#F2CECE"/>
<stop offset="1" stop-color="#F8C0A1"/>
</linearGradient>
<linearGradient id="paint9_linear_1281_354" x1="1616.38" y1="596.47" x2="1641.37" y2="591.464" gradientUnits="userSpaceOnUse">
<stop stop-color="#F2CECE"/>
<stop offset="1" stop-color="#F8C0A1"/>
</linearGradient>
<linearGradient id="paint10_linear_1281_354" x1="1606.62" y1="653.605" x2="1625.49" y2="651.134" gradientUnits="userSpaceOnUse">
<stop stop-color="#F2CECE"/>
<stop offset="1" stop-color="#F8C0A1"/>
</linearGradient>
<linearGradient id="paint11_linear_1281_354" x1="1629.62" y1="459.713" x2="1654.88" y2="459.713" gradientUnits="userSpaceOnUse">
<stop stop-color="#F2CECE"/>
<stop offset="1" stop-color="#F8C0A1"/>
</linearGradient>
<linearGradient id="paint12_linear_1281_354" x1="862.377" y1="339.757" x2="862.377" y2="470.412" gradientUnits="userSpaceOnUse">
<stop stop-color="#A4FFEC"/>
<stop offset="0.143457" stop-color="#64EEFA"/>
<stop offset="0.315336" stop-color="#3DBDFF"/>
<stop offset="0.669509" stop-color="#1677C5"/>
<stop offset="0.778886" stop-color="#124CA2"/>
<stop offset="0.976806" stop-color="#111E80"/>
</linearGradient>
<linearGradient id="paint13_linear_1281_354" x1="764.336" y1="349.443" x2="764.336" y2="470.412" gradientUnits="userSpaceOnUse">
<stop stop-color="#A4FFEC"/>
<stop offset="0.143457" stop-color="#64EEFA"/>
<stop offset="0.315336" stop-color="#3DBDFF"/>
<stop offset="0.669509" stop-color="#1677C5"/>
<stop offset="0.778886" stop-color="#124CA2"/>
<stop offset="0.976806" stop-color="#111E80"/>
</linearGradient>
<linearGradient id="paint14_linear_1281_354" x1="668.867" y1="357.152" x2="668.867" y2="470.412" gradientUnits="userSpaceOnUse">
<stop stop-color="#A4FFEC"/>
<stop offset="0.143457" stop-color="#64EEFA"/>
<stop offset="0.315336" stop-color="#3DBDFF"/>
<stop offset="0.669509" stop-color="#1677C5"/>
<stop offset="0.778886" stop-color="#124CA2"/>
<stop offset="0.976806" stop-color="#111E80"/>
</linearGradient>
<linearGradient id="paint15_linear_1281_354" x1="236.973" y1="511.723" x2="1823.22" y2="807.229" gradientUnits="userSpaceOnUse">
<stop offset="0.276972"/>
</linearGradient>
</defs>
</svg>
